<?xml version="1.0" encoding="UTF-8"?>
<svg id="Layer_2" data-name="Layer 2" xmlns="http://www.w3.org/2000/svg" viewBox="0 0 1487.13 480.63">
  <defs>
    <style>
      .cls-1 {
        stroke-width: 9px;
      }

      .cls-1, .cls-2 {
        fill: none;
        stroke: #45536a;
        stroke-miterlimit: 10;
      }

      .cls-2 {
        stroke-width: 6px;
      }

      .cls-3 {
        fill: #45536a;
        stroke-width: 0px;
      }
    </style>
  </defs>
  <g id="GRAPHIC">
    <g id="_01" data-name="01">
      <g>
        <g>
          <polyline class="cls-2" points="66.44 154.67 120.89 154.67 120.89 100.23 66.44 100.23 66.44 208.89 89.13 208.89 89.13 168.74"/>
          <polyline class="cls-2" points="149.54 73.46 149.54 127.91 95.09 127.91 95.09 73.46 203.75 73.46 203.75 96.15 163.6 96.15"/>
          <polyline class="cls-1" points="358.39 73.46 66.44 73.46 66.44 365.41"/>
        </g>
        <g>
          <path class="cls-2" d="M34.84,11.28h598.46c0,23.34-18.95,42.29-42.29,42.29H77.14c-23.34,0-42.29-18.95-42.29-42.29h0Z"/>
          <path class="cls-2" d="M34.84,11.28h598.46c0,8.04-6.53,14.57-14.57,14.57H49.41c-8.04,0-14.57-6.53-14.57-14.57h0Z"/>
          <path class="cls-2" d="M34.84,11.28h598.46v3.98c0,13.02-10.57,23.58-23.58,23.58H58.42c-13.02,0-23.58-10.57-23.58-23.58v-3.98h0Z"/>
        </g>
        <g>
          <path class="cls-2" d="M-197.45,234.88H245.75c0,23.34-18.95,42.29-42.29,42.29H-155.16c-23.34,0-42.29-18.95-42.29-42.29h0Z" transform="translate(-231.88 280.18) rotate(-90)"/>
          <path class="cls-2" d="M-211.31,248.74H231.88c0,8.04-6.53,14.57-14.57,14.57H-196.74c-8.04,0-14.57-6.53-14.57-14.57h0Z" transform="translate(-245.74 266.31) rotate(-90)"/>
          <path class="cls-2" d="M-204.82,242.25H238.38v3.98c0,13.02-10.57,23.58-23.58,23.58H-181.24c-13.02,0-23.58-10.57-23.58-23.58v-3.98h0Z" transform="translate(-239.25 272.81) rotate(-90)"/>
        </g>
      </g>
      <g>
        <g>
          <polyline class="cls-2" points="1420.69 154.67 1366.25 154.67 1366.25 100.23 1420.69 100.23 1420.69 208.89 1398.01 208.89 1398.01 168.74"/>
          <polyline class="cls-2" points="1337.6 73.46 1337.6 127.91 1392.04 127.91 1392.04 73.46 1283.38 73.46 1283.38 96.15 1323.53 96.15"/>
          <polyline class="cls-1" points="1128.74 73.46 1420.69 73.46 1420.69 365.41"/>
        </g>
        <g>
          <path class="cls-2" d="M887.19,53.57h523.28c22.89,0,41.82-18.94,41.82-42.29h0s-607.87,0-607.87,0h0c0,23.36,18.94,42.29,42.76,42.29Z"/>
          <path class="cls-2" d="M859,11.28h578.72c8.04,0,14.57,6.53,14.57,14.57h-607.87c0-8.04,6.53-14.57,14.57-14.57Z" transform="translate(2296.72 37.12) rotate(-180)"/>
          <path class="cls-2" d="M868.01,11.28h560.7c13.02,0,23.58,10.57,23.58,23.58v3.98h-607.87v-3.98c0-13.02,10.57-23.58,23.58-23.58Z" transform="translate(2296.72 50.11) rotate(-180)"/>
        </g>
        <g>
          <path class="cls-2" d="M1283.68,234.88h358.61c23.34,0,42.29,18.95,42.29,42.29h-443.2c0-23.34,18.95-42.29,42.29-42.29Z" transform="translate(1206.96 1719.01) rotate(-90)"/>
          <path class="cls-2" d="M1269.82,248.74h414.05c8.04,0,14.57,6.53,14.57,14.57h-443.2c0-8.04,6.53-14.57,14.57-14.57Z" transform="translate(1220.82 1732.88) rotate(-90)"/>
          <path class="cls-2" d="M1272.34,242.25h396.03c13.02,0,23.58,10.57,23.58,23.58v3.98h-443.2v-3.98c0-13.02,10.57-23.58,23.58-23.58Z" transform="translate(1214.32 1726.38) rotate(-90)"/>
        </g>
      </g>
      <g>
        <path class="cls-3" d="M673.61,0c-16.44,0-29.78,13.33-29.78,29.78s13.33,29.78,29.78,29.78,29.78-13.33,29.78-29.78-13.33-29.78-29.78-29.78ZM673.61,46.9l-17.12-17.12,17.12-17.12,17.12,17.12-17.12,17.12Z"/>
        <path class="cls-3" d="M803.38,0c-16.44,0-29.78,13.33-29.78,29.78s13.33,29.78,29.78,29.78,29.78-13.33,29.78-29.78-13.33-29.78-29.78-29.78ZM803.38,46.9l-17.12-17.12,17.12-17.12,17.12,17.12-17.12,17.12Z"/>
        <path class="cls-3" d="M738.08,0c-16.44,0-29.78,13.33-29.78,29.78s13.33,29.78,29.78,29.78,29.78-13.33,29.78-29.78-13.33-29.78-29.78-29.78ZM738.08,46.9l-17.12-17.12,17.12-17.12,17.12,17.12-17.12,17.12Z"/>
      </g>
    </g>
  </g>
</svg>