<?xml version="1.0" encoding="UTF-8"?>
<svg id="Layer_2" data-name="Layer 2" xmlns="http://www.w3.org/2000/svg" xmlns:xlink="http://www.w3.org/1999/xlink" viewBox="0 0 457.19 457.93">
  <defs>
    <style>
      .cls-1 {
        clip-path: url(#clippath);
      }

      .cls-2 {
        stroke-width: 0px;
      }

      .cls-2, .cls-3, .cls-4, .cls-5 {
        fill: none;
      }

      .cls-3 {
        stroke-width: 7px;
      }

      .cls-3, .cls-4, .cls-5 {
        stroke: #b0977b;
        stroke-miterlimit: 10;
      }

      .cls-4 {
        stroke-width: 17px;
      }

      .cls-6 {
        clip-path: url(#clippath-1);
      }

      .cls-5 {
        stroke-width: 2.04px;
      }
    </style>
    <clipPath id="clippath">
      <polygon class="cls-2" points="99.7 116.69 99.7 101.39 17.5 19.18 17.5 116.69 99.7 116.69"/>
    </clipPath>
    <clipPath id="clippath-1">
      <polygon class="cls-2" points="115 101.39 99.7 101.39 17.5 19.18 115 19.18 115 101.39"/>
    </clipPath>
  </defs>
  <g id="GRAPHIC">
    <g id="_08" data-name="08">
      <g>
        <g>
          <path class="cls-5" d="M58.6,380.74v8.93c0,2.59-2.23,4.71-4.96,4.71h0c-.18,0-.33.14-.33.31,0,2.59-2.23,4.71-4.96,4.71h-9.39c-2.73,0-4.96-2.12-4.96-4.71,0-.17-.15-.31-.33-.31h0c-2.73,0-4.96-2.12-4.96-4.71v-8.93c0-2.59,2.23-4.71,4.96-4.71h0c.18,0,.33-.14.33-.31h0c0-2.6,2.23-4.72,4.96-4.72h9.39c2.73,0,4.96,2.12,4.96,4.71h0c0,.17.15.31.33.31h0c2.73,0,4.96,2.12,4.96,4.71Z"/>
          <path class="cls-5" d="M38.96,396.1c-.8,0-1.48-.65-1.48-1.41,0-1.99-1.71-3.61-3.8-3.61-.81,0-1.49-.65-1.49-1.41v-8.93c0-.76.68-1.41,1.48-1.41,2.1,0,3.8-1.62,3.8-3.61,0-.77.68-1.41,1.48-1.41h9.39c.8,0,1.48.65,1.48,1.41,0,2,1.7,3.62,3.8,3.62.81,0,1.49.65,1.49,1.41v8.93c0,.77-.68,1.41-1.48,1.41-2.1,0-3.8,1.62-3.8,3.61,0,.76-.68,1.41-1.48,1.41h-9.39Z"/>
          <path class="cls-5" d="M40.68,392.8c-.69-2.3-2.6-4.11-5.01-4.76v-5.67c2.42-.65,4.33-2.47,5.01-4.76h5.96c.69,2.3,2.6,4.11,5.01,4.77v5.67c-2.42.65-4.32,2.47-5.01,4.76h-5.96Z"/>
          <path class="cls-5" d="M88.48,380.74v8.93c0,2.59-2.23,4.71-4.96,4.71h0c-.18,0-.33.14-.33.31,0,2.59-2.23,4.71-4.96,4.71h-9.39c-2.73,0-4.96-2.12-4.96-4.71,0-.17-.15-.31-.33-.31h0c-2.73,0-4.96-2.12-4.96-4.71v-8.93c0-2.59,2.23-4.71,4.96-4.71h0c.18,0,.33-.14.33-.31h0c0-2.6,2.23-4.72,4.96-4.72h9.39c2.73,0,4.96,2.12,4.96,4.71h0c0,.17.15.31.33.31h0c2.73,0,4.96,2.12,4.96,4.71Z"/>
          <path class="cls-5" d="M68.85,396.1c-.8,0-1.48-.65-1.48-1.41,0-1.99-1.71-3.61-3.8-3.61-.81,0-1.49-.65-1.49-1.41v-8.93c0-.76.68-1.41,1.48-1.41,2.1,0,3.8-1.62,3.8-3.61,0-.77.68-1.41,1.48-1.41h9.39c.8,0,1.48.65,1.48,1.41,0,2,1.7,3.62,3.8,3.62.81,0,1.49.65,1.49,1.41v8.93c0,.77-.68,1.41-1.48,1.41-2.1,0-3.8,1.62-3.8,3.61,0,.76-.68,1.41-1.48,1.41h-9.39Z"/>
          <path class="cls-5" d="M70.56,392.8c-.69-2.3-2.6-4.11-5.01-4.76v-5.67c2.42-.65,4.33-2.47,5.01-4.76h5.96c.69,2.3,2.6,4.11,5.01,4.77v5.67c-2.42.65-4.32,2.47-5.01,4.76h-5.96Z"/>
          <g>
            <rect class="cls-2" x="28.36" y="399.75" width="60.49" height="57.5"/>
            <path class="cls-5" d="M58.6,438.24v8.93c0,2.59-2.23,4.71-4.96,4.71h0c-.18,0-.33.14-.33.31,0,2.59-2.23,4.71-4.96,4.71h-9.39c-2.73,0-4.96-2.12-4.96-4.71,0-.17-.15-.31-.33-.31h0c-2.73,0-4.96-2.12-4.96-4.71v-8.93c0-2.59,2.23-4.71,4.96-4.71h0c.18,0,.33-.14.33-.31h0c0-2.6,2.23-4.72,4.96-4.72h9.39c2.73,0,4.96,2.12,4.96,4.71h0c0,.17.15.31.33.31h0c2.73,0,4.96,2.12,4.96,4.71Z"/>
            <path class="cls-5" d="M38.96,453.6c-.8,0-1.48-.65-1.48-1.41,0-1.99-1.71-3.61-3.8-3.61-.81,0-1.49-.65-1.49-1.41v-8.93c0-.76.68-1.41,1.48-1.41,2.1,0,3.8-1.62,3.8-3.61,0-.77.68-1.41,1.48-1.41h9.39c.8,0,1.48.65,1.48,1.41,0,2,1.7,3.62,3.8,3.62.81,0,1.49.65,1.49,1.41v8.93c0,.77-.68,1.41-1.48,1.41-2.1,0-3.8,1.62-3.8,3.61,0,.76-.68,1.41-1.48,1.41h-9.39Z"/>
            <path class="cls-5" d="M40.68,450.3c-.69-2.3-2.6-4.11-5.01-4.76v-5.67c2.42-.65,4.33-2.47,5.01-4.76h5.96c.69,2.3,2.6,4.11,5.01,4.77v5.67c-2.42.65-4.32,2.47-5.01,4.76h-5.96Z"/>
            <path class="cls-5" d="M58.6,409.83v8.93c0,2.59-2.23,4.71-4.96,4.71h0c-.18,0-.33.14-.33.31,0,2.59-2.23,4.71-4.96,4.71h-9.39c-2.73,0-4.96-2.12-4.96-4.71,0-.17-.15-.31-.33-.31h0c-2.73,0-4.96-2.12-4.96-4.71v-8.93c0-2.59,2.23-4.71,4.96-4.71h0c.18,0,.33-.14.33-.31h0c0-2.6,2.23-4.72,4.96-4.72h9.39c2.73,0,4.96,2.12,4.96,4.71h0c0,.17.15.31.33.31h0c2.73,0,4.96,2.12,4.96,4.71Z"/>
            <path class="cls-5" d="M38.96,425.19c-.8,0-1.48-.65-1.48-1.41,0-1.99-1.71-3.61-3.8-3.61-.81,0-1.49-.65-1.49-1.41v-8.93c0-.77.68-1.41,1.48-1.41,2.1,0,3.8-1.62,3.8-3.61,0-.77.68-1.41,1.48-1.41h9.39c.8,0,1.48.65,1.48,1.41,0,2,1.7,3.62,3.8,3.62.81,0,1.49.65,1.49,1.41v8.93c0,.77-.68,1.41-1.48,1.41-2.1,0-3.8,1.62-3.8,3.61,0,.76-.68,1.41-1.48,1.41h-9.39Z"/>
            <path class="cls-5" d="M40.68,421.89c-.69-2.3-2.6-4.11-5.01-4.76v-5.67c2.42-.65,4.33-2.47,5.01-4.76h5.96c.69,2.3,2.6,4.11,5.01,4.77v5.67c-2.42.65-4.32,2.47-5.01,4.76h-5.96Z"/>
            <path class="cls-5" d="M88.48,438.24v8.93c0,2.59-2.23,4.71-4.96,4.71h0c-.18,0-.33.14-.33.31,0,2.59-2.23,4.71-4.96,4.71h-9.39c-2.73,0-4.96-2.12-4.96-4.71,0-.17-.15-.31-.33-.31h0c-2.73,0-4.96-2.12-4.96-4.71v-8.93c0-2.59,2.23-4.71,4.96-4.71h0c.18,0,.33-.14.33-.31h0c0-2.6,2.23-4.72,4.96-4.72h9.39c2.73,0,4.96,2.12,4.96,4.71h0c0,.17.15.31.33.31h0c2.73,0,4.96,2.12,4.96,4.71Z"/>
            <path class="cls-5" d="M68.85,453.6c-.8,0-1.48-.65-1.48-1.41,0-1.99-1.71-3.61-3.8-3.61-.81,0-1.49-.65-1.49-1.41v-8.93c0-.76.68-1.41,1.48-1.41,2.1,0,3.8-1.62,3.8-3.61,0-.77.68-1.41,1.48-1.41h9.39c.8,0,1.48.65,1.48,1.41,0,2,1.7,3.62,3.8,3.62.81,0,1.49.65,1.49,1.41v8.93c0,.77-.68,1.41-1.48,1.41-2.1,0-3.8,1.62-3.8,3.61,0,.76-.68,1.41-1.48,1.41h-9.39Z"/>
            <path class="cls-5" d="M70.56,450.3c-.69-2.3-2.6-4.11-5.01-4.76v-5.67c2.42-.65,4.33-2.47,5.01-4.76h5.96c.69,2.3,2.6,4.11,5.01,4.77v5.67c-2.42.65-4.32,2.47-5.01,4.76h-5.96Z"/>
            <path class="cls-5" d="M88.48,409.83v8.93c0,2.59-2.23,4.71-4.96,4.71h0c-.18,0-.33.14-.33.31,0,2.59-2.23,4.71-4.96,4.71h-9.39c-2.73,0-4.96-2.12-4.96-4.71,0-.17-.15-.31-.33-.31h0c-2.73,0-4.96-2.12-4.96-4.71v-8.93c0-2.59,2.23-4.71,4.96-4.71h0c.18,0,.33-.14.33-.31h0c0-2.6,2.23-4.72,4.96-4.72h9.39c2.73,0,4.96,2.12,4.96,4.71h0c0,.17.15.31.33.31h0c2.73,0,4.96,2.12,4.96,4.71Z"/>
            <path class="cls-5" d="M68.85,425.19c-.8,0-1.48-.65-1.48-1.41,0-1.99-1.71-3.61-3.8-3.61-.81,0-1.49-.65-1.49-1.41v-8.93c0-.77.68-1.41,1.48-1.41,2.1,0,3.8-1.62,3.8-3.61,0-.77.68-1.41,1.48-1.41h9.39c.8,0,1.48.65,1.48,1.41,0,2,1.7,3.62,3.8,3.62.81,0,1.49.65,1.49,1.41v8.93c0,.77-.68,1.41-1.48,1.41-2.1,0-3.8,1.62-3.8,3.61,0,.76-.68,1.41-1.48,1.41h-9.39Z"/>
            <path class="cls-5" d="M70.56,421.89c-.69-2.3-2.6-4.11-5.01-4.76v-5.67c2.42-.65,4.33-2.47,5.01-4.76h5.96c.69,2.3,2.6,4.11,5.01,4.77v5.67c-2.42.65-4.32,2.47-5.01,4.76h-5.96Z"/>
          </g>
        </g>
        <g>
          <path class="cls-5" d="M58.6,292.89v8.93c0,2.59-2.23,4.71-4.96,4.71h0c-.18,0-.33.14-.33.31,0,2.59-2.23,4.71-4.96,4.71h-9.39c-2.73,0-4.96-2.12-4.96-4.71,0-.17-.15-.31-.33-.31h0c-2.73,0-4.96-2.12-4.96-4.71v-8.93c0-2.59,2.23-4.71,4.96-4.71h0c.18,0,.33-.14.33-.31h0c0-2.6,2.23-4.72,4.96-4.72h9.39c2.73,0,4.96,2.12,4.96,4.71h0c0,.17.15.31.33.31h0c2.73,0,4.96,2.12,4.96,4.71Z"/>
          <path class="cls-5" d="M38.96,308.26c-.8,0-1.48-.65-1.48-1.41,0-1.99-1.71-3.61-3.8-3.61-.81,0-1.49-.65-1.49-1.41v-8.93c0-.77.68-1.41,1.48-1.41,2.1,0,3.8-1.62,3.8-3.61,0-.77.68-1.41,1.48-1.41h9.39c.8,0,1.48.65,1.48,1.41,0,2,1.7,3.62,3.8,3.62.81,0,1.49.65,1.49,1.41v8.93c0,.76-.68,1.41-1.48,1.41-2.1,0-3.8,1.62-3.8,3.61,0,.76-.68,1.41-1.48,1.41h-9.39Z"/>
          <path class="cls-5" d="M40.68,304.96c-.69-2.3-2.6-4.11-5.01-4.76v-5.67c2.42-.65,4.33-2.47,5.01-4.76h5.96c.69,2.3,2.6,4.11,5.01,4.77v5.67c-2.42.65-4.32,2.47-5.01,4.76h-5.96Z"/>
          <path class="cls-5" d="M88.48,292.89v8.93c0,2.59-2.23,4.71-4.96,4.71h0c-.18,0-.33.14-.33.31,0,2.59-2.23,4.71-4.96,4.71h-9.39c-2.73,0-4.96-2.12-4.96-4.71,0-.17-.15-.31-.33-.31h0c-2.73,0-4.96-2.12-4.96-4.71v-8.93c0-2.59,2.23-4.71,4.96-4.71h0c.18,0,.33-.14.33-.31h0c0-2.6,2.23-4.72,4.96-4.72h9.39c2.73,0,4.96,2.12,4.96,4.71h0c0,.17.15.31.33.31h0c2.73,0,4.96,2.12,4.96,4.71Z"/>
          <path class="cls-5" d="M68.85,308.26c-.8,0-1.48-.65-1.48-1.41,0-1.99-1.71-3.61-3.8-3.61-.81,0-1.49-.65-1.49-1.41v-8.93c0-.77.68-1.41,1.48-1.41,2.1,0,3.8-1.62,3.8-3.61,0-.77.68-1.41,1.48-1.41h9.39c.8,0,1.48.65,1.48,1.41,0,2,1.7,3.62,3.8,3.62.81,0,1.49.65,1.49,1.41v8.93c0,.76-.68,1.41-1.48,1.41-2.1,0-3.8,1.62-3.8,3.61,0,.76-.68,1.41-1.48,1.41h-9.39Z"/>
          <path class="cls-5" d="M70.56,304.96c-.69-2.3-2.6-4.11-5.01-4.76v-5.67c2.42-.65,4.33-2.47,5.01-4.76h5.96c.69,2.3,2.6,4.11,5.01,4.77v5.67c-2.42.65-4.32,2.47-5.01,4.76h-5.96Z"/>
          <g>
            <rect class="cls-2" x="28.36" y="311.9" width="60.49" height="57.5"/>
            <path class="cls-5" d="M58.6,350.39v8.93c0,2.59-2.23,4.71-4.96,4.71h0c-.18,0-.33.14-.33.31,0,2.59-2.23,4.71-4.96,4.71h-9.39c-2.73,0-4.96-2.12-4.96-4.71,0-.17-.15-.31-.33-.31h0c-2.73,0-4.96-2.12-4.96-4.71v-8.93c0-2.59,2.23-4.71,4.96-4.71h0c.18,0,.33-.14.33-.31h0c0-2.6,2.23-4.72,4.96-4.72h9.39c2.73,0,4.96,2.12,4.96,4.71h0c0,.17.15.31.33.31h0c2.73,0,4.96,2.12,4.96,4.71Z"/>
            <path class="cls-5" d="M38.96,365.76c-.8,0-1.48-.65-1.48-1.41,0-1.99-1.71-3.61-3.8-3.61-.81,0-1.49-.65-1.49-1.41v-8.93c0-.77.68-1.41,1.48-1.41,2.1,0,3.8-1.62,3.8-3.61,0-.77.68-1.41,1.48-1.41h9.39c.8,0,1.48.65,1.48,1.41,0,2,1.7,3.62,3.8,3.62.81,0,1.49.65,1.49,1.41v8.93c0,.76-.68,1.41-1.48,1.41-2.1,0-3.8,1.62-3.8,3.61,0,.76-.68,1.41-1.48,1.41h-9.39Z"/>
            <path class="cls-5" d="M40.68,362.45c-.69-2.3-2.6-4.11-5.01-4.76v-5.67c2.42-.65,4.33-2.47,5.01-4.76h5.96c.69,2.3,2.6,4.11,5.01,4.77v5.67c-2.42.65-4.32,2.47-5.01,4.76h-5.96Z"/>
            <path class="cls-5" d="M58.6,321.99v8.93c0,2.59-2.23,4.71-4.96,4.71h0c-.18,0-.33.14-.33.31,0,2.59-2.23,4.71-4.96,4.71h-9.39c-2.73,0-4.96-2.12-4.96-4.71,0-.17-.15-.31-.33-.31h0c-2.73,0-4.96-2.12-4.96-4.71v-8.93c0-2.59,2.23-4.71,4.96-4.71h0c.18,0,.33-.14.33-.31h0c0-2.6,2.23-4.72,4.96-4.72h9.39c2.73,0,4.96,2.12,4.96,4.71h0c0,.17.15.31.33.31h0c2.73,0,4.96,2.12,4.96,4.71Z"/>
            <path class="cls-5" d="M38.96,337.35c-.8,0-1.48-.65-1.48-1.41,0-1.99-1.71-3.61-3.8-3.61-.81,0-1.49-.65-1.49-1.41v-8.93c0-.77.68-1.41,1.48-1.41,2.1,0,3.8-1.62,3.8-3.61,0-.77.68-1.41,1.48-1.41h9.39c.8,0,1.48.65,1.48,1.41,0,2,1.7,3.62,3.8,3.62.81,0,1.49.65,1.49,1.41v8.93c0,.76-.68,1.41-1.48,1.41-2.1,0-3.8,1.62-3.8,3.61,0,.76-.68,1.41-1.48,1.41h-9.39Z"/>
            <path class="cls-5" d="M40.68,334.05c-.69-2.3-2.6-4.11-5.01-4.76v-5.67c2.42-.65,4.33-2.47,5.01-4.76h5.96c.69,2.3,2.6,4.11,5.01,4.77v5.67c-2.42.65-4.32,2.47-5.01,4.76h-5.96Z"/>
            <path class="cls-5" d="M88.48,350.39v8.93c0,2.59-2.23,4.71-4.96,4.71h0c-.18,0-.33.14-.33.31,0,2.59-2.23,4.71-4.96,4.71h-9.39c-2.73,0-4.96-2.12-4.96-4.71,0-.17-.15-.31-.33-.31h0c-2.73,0-4.96-2.12-4.96-4.71v-8.93c0-2.59,2.23-4.71,4.96-4.71h0c.18,0,.33-.14.33-.31h0c0-2.6,2.23-4.72,4.96-4.72h9.39c2.73,0,4.96,2.12,4.96,4.71h0c0,.17.15.31.33.31h0c2.73,0,4.96,2.12,4.96,4.71Z"/>
            <path class="cls-5" d="M68.85,365.76c-.8,0-1.48-.65-1.48-1.41,0-1.99-1.71-3.61-3.8-3.61-.81,0-1.49-.65-1.49-1.41v-8.93c0-.77.68-1.41,1.48-1.41,2.1,0,3.8-1.62,3.8-3.61,0-.77.68-1.41,1.48-1.41h9.39c.8,0,1.48.65,1.48,1.41,0,2,1.7,3.62,3.8,3.62.81,0,1.49.65,1.49,1.41v8.93c0,.76-.68,1.41-1.48,1.41-2.1,0-3.8,1.62-3.8,3.61,0,.76-.68,1.41-1.48,1.41h-9.39Z"/>
            <path class="cls-5" d="M70.56,362.45c-.69-2.3-2.6-4.11-5.01-4.76v-5.67c2.42-.65,4.33-2.47,5.01-4.76h5.96c.69,2.3,2.6,4.11,5.01,4.77v5.67c-2.42.65-4.32,2.47-5.01,4.76h-5.96Z"/>
            <path class="cls-5" d="M88.48,321.99v8.93c0,2.59-2.23,4.71-4.96,4.71h0c-.18,0-.33.14-.33.31,0,2.59-2.23,4.71-4.96,4.71h-9.39c-2.73,0-4.96-2.12-4.96-4.71,0-.17-.15-.31-.33-.31h0c-2.73,0-4.96-2.12-4.96-4.71v-8.93c0-2.59,2.23-4.71,4.96-4.71h0c.18,0,.33-.14.33-.31h0c0-2.6,2.23-4.72,4.96-4.72h9.39c2.73,0,4.96,2.12,4.96,4.71h0c0,.17.15.31.33.31h0c2.73,0,4.96,2.12,4.96,4.71Z"/>
            <path class="cls-5" d="M68.85,337.35c-.8,0-1.48-.65-1.48-1.41,0-1.99-1.71-3.61-3.8-3.61-.81,0-1.49-.65-1.49-1.41v-8.93c0-.77.68-1.41,1.48-1.41,2.1,0,3.8-1.62,3.8-3.61,0-.77.68-1.41,1.48-1.41h9.39c.8,0,1.48.65,1.48,1.41,0,2,1.7,3.62,3.8,3.62.81,0,1.49.65,1.49,1.41v8.93c0,.76-.68,1.41-1.48,1.41-2.1,0-3.8,1.62-3.8,3.61,0,.76-.68,1.41-1.48,1.41h-9.39Z"/>
            <path class="cls-5" d="M70.56,334.05c-.69-2.3-2.6-4.11-5.01-4.76v-5.67c2.42-.65,4.33-2.47,5.01-4.76h5.96c.69,2.3,2.6,4.11,5.01,4.77v5.67c-2.42.65-4.32,2.47-5.01,4.76h-5.96Z"/>
          </g>
        </g>
        <g>
          <path class="cls-5" d="M58.6,205.05v8.93c0,2.59-2.23,4.71-4.96,4.71h0c-.18,0-.33.14-.33.31,0,2.59-2.23,4.71-4.96,4.71h-9.39c-2.73,0-4.96-2.12-4.96-4.71,0-.17-.15-.31-.33-.31h0c-2.73,0-4.96-2.12-4.96-4.71v-8.93c0-2.59,2.23-4.71,4.96-4.71h0c.18,0,.33-.14.33-.31h0c0-2.6,2.23-4.72,4.96-4.72h9.39c2.73,0,4.96,2.12,4.96,4.71h0c0,.17.15.31.33.31h0c2.73,0,4.96,2.12,4.96,4.71Z"/>
          <path class="cls-5" d="M38.96,220.41c-.8,0-1.48-.65-1.48-1.41,0-1.99-1.71-3.61-3.8-3.61-.81,0-1.49-.65-1.49-1.41v-8.93c0-.76.68-1.41,1.48-1.41,2.1,0,3.8-1.62,3.8-3.61,0-.77.68-1.41,1.48-1.41h9.39c.8,0,1.48.65,1.48,1.41,0,2,1.7,3.62,3.8,3.62.81,0,1.49.65,1.49,1.41v8.93c0,.77-.68,1.41-1.48,1.41-2.1,0-3.8,1.62-3.8,3.61,0,.76-.68,1.41-1.48,1.41h-9.39Z"/>
          <path class="cls-5" d="M40.68,217.11c-.69-2.3-2.6-4.11-5.01-4.76v-5.67c2.42-.65,4.33-2.47,5.01-4.76h5.96c.69,2.3,2.6,4.11,5.01,4.77v5.67c-2.42.65-4.32,2.47-5.01,4.76h-5.96Z"/>
          <path class="cls-5" d="M88.48,205.05v8.93c0,2.59-2.23,4.71-4.96,4.71h0c-.18,0-.33.14-.33.31,0,2.59-2.23,4.71-4.96,4.71h-9.39c-2.73,0-4.96-2.12-4.96-4.71,0-.17-.15-.31-.33-.31h0c-2.73,0-4.96-2.12-4.96-4.71v-8.93c0-2.59,2.23-4.71,4.96-4.71h0c.18,0,.33-.14.33-.31h0c0-2.6,2.23-4.72,4.96-4.72h9.39c2.73,0,4.96,2.12,4.96,4.71h0c0,.17.15.31.33.31h0c2.73,0,4.96,2.12,4.96,4.71Z"/>
          <path class="cls-5" d="M68.85,220.41c-.8,0-1.48-.65-1.48-1.41,0-1.99-1.71-3.61-3.8-3.61-.81,0-1.49-.65-1.49-1.41v-8.93c0-.76.68-1.41,1.48-1.41,2.1,0,3.8-1.62,3.8-3.61,0-.77.68-1.41,1.48-1.41h9.39c.8,0,1.48.65,1.48,1.41,0,2,1.7,3.62,3.8,3.62.81,0,1.49.65,1.49,1.41v8.93c0,.77-.68,1.41-1.48,1.41-2.1,0-3.8,1.62-3.8,3.61,0,.76-.68,1.41-1.48,1.41h-9.39Z"/>
          <path class="cls-5" d="M70.56,217.11c-.69-2.3-2.6-4.11-5.01-4.76v-5.67c2.42-.65,4.33-2.47,5.01-4.76h5.96c.69,2.3,2.6,4.11,5.01,4.77v5.67c-2.42.65-4.32,2.47-5.01,4.76h-5.96Z"/>
          <g>
            <rect class="cls-2" x="28.36" y="224.06" width="60.49" height="57.5"/>
            <path class="cls-5" d="M58.6,262.55v8.93c0,2.59-2.23,4.71-4.96,4.71h0c-.18,0-.33.14-.33.31,0,2.59-2.23,4.71-4.96,4.71h-9.39c-2.73,0-4.96-2.12-4.96-4.71,0-.17-.15-.31-.33-.31h0c-2.73,0-4.96-2.12-4.96-4.71v-8.93c0-2.59,2.23-4.71,4.96-4.71h0c.18,0,.33-.14.33-.31h0c0-2.6,2.23-4.72,4.96-4.72h9.39c2.73,0,4.96,2.12,4.96,4.71h0c0,.17.15.31.33.31h0c2.73,0,4.96,2.12,4.96,4.71Z"/>
            <path class="cls-5" d="M38.96,277.91c-.8,0-1.48-.65-1.48-1.41,0-1.99-1.71-3.61-3.8-3.61-.81,0-1.49-.65-1.49-1.41v-8.93c0-.76.68-1.41,1.48-1.41,2.1,0,3.8-1.62,3.8-3.61,0-.77.68-1.41,1.48-1.41h9.39c.8,0,1.48.65,1.48,1.41,0,2,1.7,3.62,3.8,3.62.81,0,1.49.65,1.49,1.41v8.93c0,.77-.68,1.41-1.48,1.41-2.1,0-3.8,1.62-3.8,3.61,0,.76-.68,1.41-1.48,1.41h-9.39Z"/>
            <path class="cls-5" d="M40.68,274.61c-.69-2.3-2.6-4.11-5.01-4.76v-5.67c2.42-.65,4.33-2.47,5.01-4.76h5.96c.69,2.3,2.6,4.11,5.01,4.77v5.67c-2.42.65-4.32,2.47-5.01,4.76h-5.96Z"/>
            <path class="cls-5" d="M58.6,234.14v8.93c0,2.59-2.23,4.71-4.96,4.71h0c-.18,0-.33.14-.33.31,0,2.59-2.23,4.71-4.96,4.71h-9.39c-2.73,0-4.96-2.12-4.96-4.71,0-.17-.15-.31-.33-.31h0c-2.73,0-4.96-2.12-4.96-4.71v-8.93c0-2.59,2.23-4.71,4.96-4.71h0c.18,0,.33-.14.33-.31h0c0-2.6,2.23-4.72,4.96-4.72h9.39c2.73,0,4.96,2.12,4.96,4.71h0c0,.17.15.31.33.31h0c2.73,0,4.96,2.12,4.96,4.71Z"/>
            <path class="cls-5" d="M38.96,249.5c-.8,0-1.48-.65-1.48-1.41,0-1.99-1.71-3.61-3.8-3.61-.81,0-1.49-.65-1.49-1.41v-8.93c0-.77.68-1.41,1.48-1.41,2.1,0,3.8-1.62,3.8-3.61,0-.77.68-1.41,1.48-1.41h9.39c.8,0,1.48.65,1.48,1.41,0,2,1.7,3.62,3.8,3.62.81,0,1.49.65,1.49,1.41v8.93c0,.77-.68,1.41-1.48,1.41-2.1,0-3.8,1.62-3.8,3.61,0,.76-.68,1.41-1.48,1.41h-9.39Z"/>
            <path class="cls-5" d="M40.68,246.2c-.69-2.3-2.6-4.11-5.01-4.76v-5.67c2.42-.65,4.33-2.47,5.01-4.76h5.96c.69,2.3,2.6,4.11,5.01,4.77v5.67c-2.42.65-4.32,2.47-5.01,4.76h-5.96Z"/>
            <path class="cls-5" d="M88.48,262.55v8.93c0,2.59-2.23,4.71-4.96,4.71h0c-.18,0-.33.14-.33.31,0,2.59-2.23,4.71-4.96,4.71h-9.39c-2.73,0-4.96-2.12-4.96-4.71,0-.17-.15-.31-.33-.31h0c-2.73,0-4.96-2.12-4.96-4.71v-8.93c0-2.59,2.23-4.71,4.96-4.71h0c.18,0,.33-.14.33-.31h0c0-2.6,2.23-4.72,4.96-4.72h9.39c2.73,0,4.96,2.12,4.96,4.71h0c0,.17.15.31.33.31h0c2.73,0,4.96,2.12,4.96,4.71Z"/>
            <path class="cls-5" d="M68.85,277.91c-.8,0-1.48-.65-1.48-1.41,0-1.99-1.71-3.61-3.8-3.61-.81,0-1.49-.65-1.49-1.41v-8.93c0-.76.68-1.41,1.48-1.41,2.1,0,3.8-1.62,3.8-3.61,0-.77.68-1.41,1.48-1.41h9.39c.8,0,1.48.65,1.48,1.41,0,2,1.7,3.62,3.8,3.62.81,0,1.49.65,1.49,1.41v8.93c0,.77-.68,1.41-1.48,1.41-2.1,0-3.8,1.62-3.8,3.61,0,.76-.68,1.41-1.48,1.41h-9.39Z"/>
            <path class="cls-5" d="M70.56,274.61c-.69-2.3-2.6-4.11-5.01-4.76v-5.67c2.42-.65,4.33-2.47,5.01-4.76h5.96c.69,2.3,2.6,4.11,5.01,4.77v5.67c-2.42.65-4.32,2.47-5.01,4.76h-5.96Z"/>
            <path class="cls-5" d="M88.48,234.14v8.93c0,2.59-2.23,4.71-4.96,4.71h0c-.18,0-.33.14-.33.31,0,2.59-2.23,4.71-4.96,4.71h-9.39c-2.73,0-4.96-2.12-4.96-4.71,0-.17-.15-.31-.33-.31h0c-2.73,0-4.96-2.12-4.96-4.71v-8.93c0-2.59,2.23-4.71,4.96-4.71h0c.18,0,.33-.14.33-.31h0c0-2.6,2.23-4.72,4.96-4.72h9.39c2.73,0,4.96,2.12,4.96,4.71h0c0,.17.15.31.33.31h0c2.73,0,4.96,2.12,4.96,4.71Z"/>
            <path class="cls-5" d="M68.85,249.5c-.8,0-1.48-.65-1.48-1.41,0-1.99-1.71-3.61-3.8-3.61-.81,0-1.49-.65-1.49-1.41v-8.93c0-.77.68-1.41,1.48-1.41,2.1,0,3.8-1.62,3.8-3.61,0-.77.68-1.41,1.48-1.41h9.39c.8,0,1.48.65,1.48,1.41,0,2,1.7,3.62,3.8,3.62.81,0,1.49.65,1.49,1.41v8.93c0,.77-.68,1.41-1.48,1.41-2.1,0-3.8,1.62-3.8,3.61,0,.76-.68,1.41-1.48,1.41h-9.39Z"/>
            <path class="cls-5" d="M70.56,246.2c-.69-2.3-2.6-4.11-5.01-4.76v-5.67c2.42-.65,4.33-2.47,5.01-4.76h5.96c.69,2.3,2.6,4.11,5.01,4.77v5.67c-2.42.65-4.32,2.47-5.01,4.76h-5.96Z"/>
          </g>
        </g>
        <g>
          <path class="cls-5" d="M58.6,117.2v8.93c0,2.59-2.23,4.71-4.96,4.71h0c-.18,0-.33.14-.33.31,0,2.59-2.23,4.71-4.96,4.71h-9.39c-2.73,0-4.96-2.12-4.96-4.71,0-.17-.15-.31-.33-.31h0c-2.73,0-4.96-2.12-4.96-4.71v-8.93c0-2.59,2.23-4.71,4.96-4.71h0c.18,0,.33-.14.33-.31h0c0-2.6,2.23-4.72,4.96-4.72h9.39c2.73,0,4.96,2.12,4.96,4.71h0c0,.17.15.31.33.31h0c2.73,0,4.96,2.12,4.96,4.71Z"/>
          <path class="cls-5" d="M38.96,132.57c-.8,0-1.48-.65-1.48-1.41,0-1.99-1.71-3.61-3.8-3.61-.81,0-1.49-.65-1.49-1.41v-8.93c0-.76.68-1.41,1.48-1.41,2.1,0,3.8-1.62,3.8-3.61,0-.77.68-1.41,1.48-1.41h9.39c.8,0,1.48.65,1.48,1.41,0,2,1.7,3.62,3.8,3.62.81,0,1.49.65,1.49,1.41v8.93c0,.76-.68,1.41-1.48,1.41-2.1,0-3.8,1.62-3.8,3.61,0,.76-.68,1.41-1.48,1.41h-9.39Z"/>
          <path class="cls-5" d="M40.68,129.26c-.69-2.3-2.6-4.11-5.01-4.76v-5.67c2.42-.65,4.33-2.47,5.01-4.76h5.96c.69,2.3,2.6,4.11,5.01,4.77v5.67c-2.42.65-4.32,2.47-5.01,4.76h-5.96Z"/>
          <path class="cls-5" d="M88.48,117.2v8.93c0,2.59-2.23,4.71-4.96,4.71h0c-.18,0-.33.14-.33.31,0,2.59-2.23,4.71-4.96,4.71h-9.39c-2.73,0-4.96-2.12-4.96-4.71,0-.17-.15-.31-.33-.31h0c-2.73,0-4.96-2.12-4.96-4.71v-8.93c0-2.59,2.23-4.71,4.96-4.71h0c.18,0,.33-.14.33-.31h0c0-2.6,2.23-4.72,4.96-4.72h9.39c2.73,0,4.96,2.12,4.96,4.71h0c0,.17.15.31.33.31h0c2.73,0,4.96,2.12,4.96,4.71Z"/>
          <path class="cls-5" d="M68.85,132.57c-.8,0-1.48-.65-1.48-1.41,0-1.99-1.71-3.61-3.8-3.61-.81,0-1.49-.65-1.49-1.41v-8.93c0-.76.68-1.41,1.48-1.41,2.1,0,3.8-1.62,3.8-3.61,0-.77.68-1.41,1.48-1.41h9.39c.8,0,1.48.65,1.48,1.41,0,2,1.7,3.62,3.8,3.62.81,0,1.49.65,1.49,1.41v8.93c0,.76-.68,1.41-1.48,1.41-2.1,0-3.8,1.62-3.8,3.61,0,.76-.68,1.41-1.48,1.41h-9.39Z"/>
          <path class="cls-5" d="M70.56,129.26c-.69-2.3-2.6-4.11-5.01-4.76v-5.67c2.42-.65,4.33-2.47,5.01-4.76h5.96c.69,2.3,2.6,4.11,5.01,4.77v5.67c-2.42.65-4.32,2.47-5.01,4.76h-5.96Z"/>
          <g>
            <rect class="cls-2" x="28.36" y="136.21" width="60.49" height="57.5"/>
            <path class="cls-5" d="M58.6,174.7v8.93c0,2.59-2.23,4.71-4.96,4.71h0c-.18,0-.33.14-.33.31,0,2.59-2.23,4.71-4.96,4.71h-9.39c-2.73,0-4.96-2.12-4.96-4.71,0-.17-.15-.31-.33-.31h0c-2.73,0-4.96-2.12-4.96-4.71v-8.93c0-2.59,2.23-4.71,4.96-4.71h0c.18,0,.33-.14.33-.31h0c0-2.6,2.23-4.72,4.96-4.72h9.39c2.73,0,4.96,2.12,4.96,4.71h0c0,.17.15.31.33.31h0c2.73,0,4.96,2.12,4.96,4.71Z"/>
            <path class="cls-5" d="M38.96,190.07c-.8,0-1.48-.65-1.48-1.41,0-1.99-1.71-3.61-3.8-3.61-.81,0-1.49-.65-1.49-1.41v-8.93c0-.76.68-1.41,1.48-1.41,2.1,0,3.8-1.62,3.8-3.61,0-.77.68-1.41,1.48-1.41h9.39c.8,0,1.48.65,1.48,1.41,0,2,1.7,3.62,3.8,3.62.81,0,1.49.65,1.49,1.41v8.93c0,.76-.68,1.41-1.48,1.41-2.1,0-3.8,1.62-3.8,3.61,0,.76-.68,1.41-1.48,1.41h-9.39Z"/>
            <path class="cls-5" d="M40.68,186.76c-.69-2.3-2.6-4.11-5.01-4.76v-5.67c2.42-.65,4.33-2.47,5.01-4.76h5.96c.69,2.3,2.6,4.11,5.01,4.77v5.67c-2.42.65-4.32,2.47-5.01,4.76h-5.96Z"/>
            <path class="cls-5" d="M58.6,146.29v8.93c0,2.59-2.23,4.71-4.96,4.71h0c-.18,0-.33.14-.33.31,0,2.59-2.23,4.71-4.96,4.71h-9.39c-2.73,0-4.96-2.12-4.96-4.71,0-.17-.15-.31-.33-.31h0c-2.73,0-4.96-2.12-4.96-4.71v-8.93c0-2.59,2.23-4.71,4.96-4.71h0c.18,0,.33-.14.33-.31h0c0-2.6,2.23-4.72,4.96-4.72h9.39c2.73,0,4.96,2.12,4.96,4.71h0c0,.17.15.31.33.31h0c2.73,0,4.96,2.12,4.96,4.71Z"/>
            <path class="cls-5" d="M38.96,161.66c-.8,0-1.48-.65-1.48-1.41,0-1.99-1.71-3.61-3.8-3.61-.81,0-1.49-.65-1.49-1.41v-8.93c0-.76.68-1.41,1.48-1.41,2.1,0,3.8-1.62,3.8-3.61,0-.77.68-1.41,1.48-1.41h9.39c.8,0,1.48.65,1.48,1.41,0,2,1.7,3.62,3.8,3.62.81,0,1.49.65,1.49,1.41v8.93c0,.76-.68,1.41-1.48,1.41-2.1,0-3.8,1.62-3.8,3.61,0,.76-.68,1.41-1.48,1.41h-9.39Z"/>
            <path class="cls-5" d="M40.68,158.35c-.69-2.3-2.6-4.11-5.01-4.76v-5.67c2.42-.65,4.33-2.47,5.01-4.76h5.96c.69,2.3,2.6,4.11,5.01,4.77v5.67c-2.42.65-4.32,2.47-5.01,4.76h-5.96Z"/>
            <path class="cls-5" d="M88.48,174.7v8.93c0,2.59-2.23,4.71-4.96,4.71h0c-.18,0-.33.14-.33.31,0,2.59-2.23,4.71-4.96,4.71h-9.39c-2.73,0-4.96-2.12-4.96-4.71,0-.17-.15-.31-.33-.31h0c-2.73,0-4.96-2.12-4.96-4.71v-8.93c0-2.59,2.23-4.71,4.96-4.71h0c.18,0,.33-.14.33-.31h0c0-2.6,2.23-4.72,4.96-4.72h9.39c2.73,0,4.96,2.12,4.96,4.71h0c0,.17.15.31.33.31h0c2.73,0,4.96,2.12,4.96,4.71Z"/>
            <path class="cls-5" d="M68.85,190.07c-.8,0-1.48-.65-1.48-1.41,0-1.99-1.71-3.61-3.8-3.61-.81,0-1.49-.65-1.49-1.41v-8.93c0-.76.68-1.41,1.48-1.41,2.1,0,3.8-1.62,3.8-3.61,0-.77.68-1.41,1.48-1.41h9.39c.8,0,1.48.65,1.48,1.41,0,2,1.7,3.62,3.8,3.62.81,0,1.49.65,1.49,1.41v8.93c0,.76-.68,1.41-1.48,1.41-2.1,0-3.8,1.62-3.8,3.61,0,.76-.68,1.41-1.48,1.41h-9.39Z"/>
            <path class="cls-5" d="M70.56,186.76c-.69-2.3-2.6-4.11-5.01-4.76v-5.67c2.42-.65,4.33-2.47,5.01-4.76h5.96c.69,2.3,2.6,4.11,5.01,4.77v5.67c-2.42.65-4.32,2.47-5.01,4.76h-5.96Z"/>
            <path class="cls-5" d="M88.48,146.29v8.93c0,2.59-2.23,4.71-4.96,4.71h0c-.18,0-.33.14-.33.31,0,2.59-2.23,4.71-4.96,4.71h-9.39c-2.73,0-4.96-2.12-4.96-4.71,0-.17-.15-.31-.33-.31h0c-2.73,0-4.96-2.12-4.96-4.71v-8.93c0-2.59,2.23-4.71,4.96-4.71h0c.18,0,.33-.14.33-.31h0c0-2.6,2.23-4.72,4.96-4.72h9.39c2.73,0,4.96,2.12,4.96,4.71h0c0,.17.15.31.33.31h0c2.73,0,4.96,2.12,4.96,4.71Z"/>
            <path class="cls-5" d="M68.85,161.66c-.8,0-1.48-.65-1.48-1.41,0-1.99-1.71-3.61-3.8-3.61-.81,0-1.49-.65-1.49-1.41v-8.93c0-.76.68-1.41,1.48-1.41,2.1,0,3.8-1.62,3.8-3.61,0-.77.68-1.41,1.48-1.41h9.39c.8,0,1.48.65,1.48,1.41,0,2,1.7,3.62,3.8,3.62.81,0,1.49.65,1.49,1.41v8.93c0,.76-.68,1.41-1.48,1.41-2.1,0-3.8,1.62-3.8,3.61,0,.76-.68,1.41-1.48,1.41h-9.39Z"/>
            <path class="cls-5" d="M70.56,158.35c-.69-2.3-2.6-4.11-5.01-4.76v-5.67c2.42-.65,4.33-2.47,5.01-4.76h5.96c.69,2.3,2.6,4.11,5.01,4.77v5.67c-2.42.65-4.32,2.47-5.01,4.76h-5.96Z"/>
          </g>
        </g>
        <g>
          <path class="cls-5" d="M181.94,60.29h-8.93c-2.59,0-4.71-2.23-4.71-4.96h0c0-.18-.14-.33-.31-.33-2.59,0-4.71-2.23-4.71-4.96v-9.39c0-2.73,2.12-4.96,4.71-4.96.17,0,.31-.15.31-.33h0c0-2.73,2.12-4.96,4.71-4.96h8.93c2.59,0,4.71,2.23,4.71,4.96h0c0,.18.14.33.31.33h0c2.59,0,4.71,2.23,4.71,4.96v9.39c0,2.73-2.12,4.96-4.71,4.96h0c-.17,0-.31.15-.31.33h0c0,2.73-2.12,4.96-4.71,4.96Z"/>
          <path class="cls-5" d="M166.58,40.65c0-.8.65-1.48,1.41-1.48,1.99,0,3.61-1.71,3.61-3.8,0-.81.65-1.49,1.41-1.49h8.93c.76,0,1.41.68,1.41,1.48,0,2.1,1.62,3.8,3.61,3.8.77,0,1.41.68,1.41,1.48v9.39c0,.8-.65,1.48-1.41,1.48-2,0-3.62,1.7-3.62,3.8,0,.81-.65,1.49-1.41,1.49h-8.93c-.77,0-1.41-.68-1.41-1.48,0-2.1-1.62-3.8-3.61-3.8-.76,0-1.41-.68-1.41-1.48v-9.39Z"/>
          <path class="cls-5" d="M169.88,42.37c2.3-.69,4.11-2.6,4.76-5.01h5.67c.65,2.42,2.47,4.33,4.76,5.01v5.96c-2.3.69-4.11,2.6-4.77,5.01h-5.67c-.65-2.42-2.47-4.32-4.76-5.01v-5.96Z"/>
          <path class="cls-5" d="M181.94,90.17h-8.93c-2.59,0-4.71-2.23-4.71-4.96h0c0-.18-.14-.33-.31-.33-2.59,0-4.71-2.23-4.71-4.96v-9.39c0-2.73,2.12-4.96,4.71-4.96.17,0,.31-.15.31-.33h0c0-2.73,2.12-4.96,4.71-4.96h8.93c2.59,0,4.71,2.23,4.71,4.96h0c0,.18.14.33.31.33h0c2.59,0,4.71,2.23,4.71,4.96v9.39c0,2.73-2.12,4.96-4.71,4.96h0c-.17,0-.31.15-.31.33h0c0,2.73-2.12,4.96-4.71,4.96Z"/>
          <path class="cls-5" d="M166.58,70.54c0-.8.65-1.48,1.41-1.48,1.99,0,3.61-1.71,3.61-3.8,0-.81.65-1.49,1.41-1.49h8.93c.76,0,1.41.68,1.41,1.48,0,2.1,1.62,3.8,3.61,3.8.77,0,1.41.68,1.41,1.48v9.39c0,.8-.65,1.48-1.41,1.48-2,0-3.62,1.7-3.62,3.8,0,.81-.65,1.49-1.41,1.49h-8.93c-.77,0-1.41-.68-1.41-1.48,0-2.1-1.62-3.8-3.61-3.8-.76,0-1.41-.68-1.41-1.48v-9.39Z"/>
          <path class="cls-5" d="M169.88,72.25c2.3-.69,4.11-2.6,4.76-5.01h5.67c.65,2.42,2.47,4.33,4.76,5.01v5.96c-2.3.69-4.11,2.6-4.77,5.01h-5.67c-.65-2.42-2.47-4.32-4.76-5.01v-5.96Z"/>
          <g>
            <rect class="cls-2" x="105.43" y="30.05" width="57.5" height="60.49"/>
            <path class="cls-5" d="M124.44,60.29h-8.93c-2.59,0-4.71-2.23-4.71-4.96h0c0-.18-.14-.33-.31-.33-2.59,0-4.71-2.23-4.71-4.96v-9.39c0-2.73,2.12-4.96,4.71-4.96.17,0,.31-.15.31-.33h0c0-2.73,2.12-4.96,4.71-4.96h8.93c2.59,0,4.71,2.23,4.71,4.96h0c0,.18.14.33.31.33h0c2.59,0,4.71,2.23,4.71,4.96v9.39c0,2.73-2.12,4.96-4.71,4.96h0c-.17,0-.31.15-.31.33h0c0,2.73-2.12,4.96-4.71,4.96Z"/>
            <path class="cls-5" d="M109.08,40.65c0-.8.65-1.48,1.41-1.48,1.99,0,3.61-1.71,3.61-3.8,0-.81.65-1.49,1.41-1.49h8.93c.76,0,1.41.68,1.41,1.48,0,2.1,1.62,3.8,3.61,3.8.77,0,1.41.68,1.41,1.48v9.39c0,.8-.65,1.48-1.41,1.48-2,0-3.62,1.7-3.62,3.8,0,.81-.65,1.49-1.41,1.49h-8.93c-.77,0-1.41-.68-1.41-1.48,0-2.1-1.62-3.8-3.61-3.8-.76,0-1.41-.68-1.41-1.48v-9.39Z"/>
            <path class="cls-5" d="M112.38,42.37c2.3-.69,4.11-2.6,4.76-5.01h5.67c.65,2.42,2.47,4.33,4.76,5.01v5.96c-2.3.69-4.11,2.6-4.77,5.01h-5.67c-.65-2.42-2.47-4.32-4.76-5.01v-5.96Z"/>
            <path class="cls-5" d="M152.85,60.29h-8.93c-2.59,0-4.71-2.23-4.71-4.96h0c0-.18-.14-.33-.31-.33-2.59,0-4.71-2.23-4.71-4.96v-9.39c0-2.73,2.12-4.96,4.71-4.96.17,0,.31-.15.31-.33h0c0-2.73,2.12-4.96,4.71-4.96h8.93c2.59,0,4.71,2.23,4.71,4.96h0c0,.18.14.33.31.33h0c2.59,0,4.71,2.23,4.71,4.96v9.39c0,2.73-2.12,4.96-4.71,4.96h0c-.17,0-.31.15-.31.33h0c0,2.73-2.12,4.96-4.71,4.96Z"/>
            <path class="cls-5" d="M137.49,40.65c0-.8.65-1.48,1.41-1.48,1.99,0,3.61-1.71,3.61-3.8,0-.81.65-1.49,1.41-1.49h8.93c.76,0,1.41.68,1.41,1.48,0,2.1,1.62,3.8,3.61,3.8.77,0,1.41.68,1.41,1.48v9.39c0,.8-.65,1.48-1.41,1.48-2,0-3.62,1.7-3.62,3.8,0,.81-.65,1.49-1.41,1.49h-8.93c-.76,0-1.41-.68-1.41-1.48,0-2.1-1.62-3.8-3.61-3.8-.76,0-1.41-.68-1.41-1.48v-9.39Z"/>
            <path class="cls-5" d="M140.79,42.37c2.3-.69,4.11-2.6,4.76-5.01h5.67c.65,2.42,2.47,4.33,4.76,5.01v5.96c-2.3.69-4.11,2.6-4.77,5.01h-5.67c-.65-2.42-2.47-4.32-4.76-5.01v-5.96Z"/>
            <path class="cls-5" d="M124.44,90.17h-8.93c-2.59,0-4.71-2.23-4.71-4.96h0c0-.18-.14-.33-.31-.33-2.59,0-4.71-2.23-4.71-4.96v-9.39c0-2.73,2.12-4.96,4.71-4.96.17,0,.31-.15.31-.33h0c0-2.73,2.12-4.96,4.71-4.96h8.93c2.59,0,4.71,2.23,4.71,4.96h0c0,.18.14.33.31.33h0c2.59,0,4.71,2.23,4.71,4.96v9.39c0,2.73-2.12,4.96-4.71,4.96h0c-.17,0-.31.15-.31.33h0c0,2.73-2.12,4.96-4.71,4.96Z"/>
            <path class="cls-5" d="M109.08,70.54c0-.8.65-1.48,1.41-1.48,1.99,0,3.61-1.71,3.61-3.8,0-.81.65-1.49,1.41-1.49h8.93c.76,0,1.41.68,1.41,1.48,0,2.1,1.62,3.8,3.61,3.8.77,0,1.41.68,1.41,1.48v9.39c0,.8-.65,1.48-1.41,1.48-2,0-3.62,1.7-3.62,3.8,0,.81-.65,1.49-1.41,1.49h-8.93c-.77,0-1.41-.68-1.41-1.48,0-2.1-1.62-3.8-3.61-3.8-.76,0-1.41-.68-1.41-1.48v-9.39Z"/>
            <path class="cls-5" d="M112.38,72.25c2.3-.69,4.11-2.6,4.76-5.01h5.67c.65,2.42,2.47,4.33,4.76,5.01v5.96c-2.3.69-4.11,2.6-4.77,5.01h-5.67c-.65-2.42-2.47-4.32-4.76-5.01v-5.96Z"/>
            <path class="cls-5" d="M152.85,90.17h-8.93c-2.59,0-4.71-2.23-4.71-4.96h0c0-.18-.14-.33-.31-.33-2.59,0-4.71-2.23-4.71-4.96v-9.39c0-2.73,2.12-4.96,4.71-4.96.17,0,.31-.15.31-.33h0c0-2.73,2.12-4.96,4.71-4.96h8.93c2.59,0,4.71,2.23,4.71,4.96h0c0,.18.14.33.31.33h0c2.59,0,4.71,2.23,4.71,4.96v9.39c0,2.73-2.12,4.96-4.71,4.96h0c-.17,0-.31.15-.31.33h0c0,2.73-2.12,4.96-4.71,4.96Z"/>
            <path class="cls-5" d="M137.49,70.54c0-.8.65-1.48,1.41-1.48,1.99,0,3.61-1.71,3.61-3.8,0-.81.65-1.49,1.41-1.49h8.93c.76,0,1.41.68,1.41,1.48,0,2.1,1.62,3.8,3.61,3.8.77,0,1.41.68,1.41,1.48v9.39c0,.8-.65,1.48-1.41,1.48-2,0-3.62,1.7-3.62,3.8,0,.81-.65,1.49-1.41,1.49h-8.93c-.76,0-1.41-.68-1.41-1.48,0-2.1-1.62-3.8-3.61-3.8-.76,0-1.41-.68-1.41-1.48v-9.39Z"/>
            <path class="cls-5" d="M140.79,72.25c2.3-.69,4.11-2.6,4.76-5.01h5.67c.65,2.42,2.47,4.33,4.76,5.01v5.96c-2.3.69-4.11,2.6-4.77,5.01h-5.67c-.65-2.42-2.47-4.32-4.76-5.01v-5.96Z"/>
          </g>
        </g>
        <g>
          <path class="cls-5" d="M269.79,60.29h-8.93c-2.59,0-4.71-2.23-4.71-4.96h0c0-.18-.14-.33-.31-.33-2.59,0-4.71-2.23-4.71-4.96v-9.39c0-2.73,2.12-4.96,4.71-4.96.17,0,.31-.15.31-.33h0c0-2.73,2.12-4.96,4.71-4.96h8.93c2.59,0,4.71,2.23,4.71,4.96h0c0,.18.14.33.31.33h0c2.59,0,4.71,2.23,4.71,4.96v9.39c0,2.73-2.12,4.96-4.71,4.96h0c-.17,0-.31.15-.31.33h0c0,2.73-2.12,4.96-4.71,4.96Z"/>
          <path class="cls-5" d="M254.42,40.65c0-.8.65-1.48,1.41-1.48,1.99,0,3.61-1.71,3.61-3.8,0-.81.65-1.49,1.41-1.49h8.93c.77,0,1.41.68,1.41,1.48,0,2.1,1.62,3.8,3.61,3.8.77,0,1.41.68,1.41,1.48v9.39c0,.8-.65,1.48-1.41,1.48-2,0-3.62,1.7-3.62,3.8,0,.81-.65,1.49-1.41,1.49h-8.93c-.76,0-1.41-.68-1.41-1.48,0-2.1-1.62-3.8-3.61-3.8-.76,0-1.41-.68-1.41-1.48v-9.39Z"/>
          <path class="cls-5" d="M257.72,42.37c2.3-.69,4.11-2.6,4.76-5.01h5.67c.65,2.42,2.47,4.33,4.76,5.01v5.96c-2.3.69-4.11,2.6-4.77,5.01h-5.67c-.65-2.42-2.47-4.32-4.76-5.01v-5.96Z"/>
          <path class="cls-5" d="M269.79,90.17h-8.93c-2.59,0-4.71-2.23-4.71-4.96h0c0-.18-.14-.33-.31-.33-2.59,0-4.71-2.23-4.71-4.96v-9.39c0-2.73,2.12-4.96,4.71-4.96.17,0,.31-.15.31-.33h0c0-2.73,2.12-4.96,4.71-4.96h8.93c2.59,0,4.71,2.23,4.71,4.96h0c0,.18.14.33.31.33h0c2.59,0,4.71,2.23,4.71,4.96v9.39c0,2.73-2.12,4.96-4.71,4.96h0c-.17,0-.31.15-.31.33h0c0,2.73-2.12,4.96-4.71,4.96Z"/>
          <path class="cls-5" d="M254.42,70.54c0-.8.65-1.48,1.41-1.48,1.99,0,3.61-1.71,3.61-3.8,0-.81.65-1.49,1.41-1.49h8.93c.77,0,1.41.68,1.41,1.48,0,2.1,1.62,3.8,3.61,3.8.77,0,1.41.68,1.41,1.48v9.39c0,.8-.65,1.48-1.41,1.48-2,0-3.62,1.7-3.62,3.8,0,.81-.65,1.49-1.41,1.49h-8.93c-.76,0-1.41-.68-1.41-1.48,0-2.1-1.62-3.8-3.61-3.8-.76,0-1.41-.68-1.41-1.48v-9.39Z"/>
          <path class="cls-5" d="M257.72,72.25c2.3-.69,4.11-2.6,4.76-5.01h5.67c.65,2.42,2.47,4.33,4.76,5.01v5.96c-2.3.69-4.11,2.6-4.77,5.01h-5.67c-.65-2.42-2.47-4.32-4.76-5.01v-5.96Z"/>
          <g>
            <rect class="cls-2" x="193.28" y="30.05" width="57.5" height="60.49"/>
            <path class="cls-5" d="M212.29,60.29h-8.93c-2.59,0-4.71-2.23-4.71-4.96h0c0-.18-.14-.33-.31-.33-2.59,0-4.71-2.23-4.71-4.96v-9.39c0-2.73,2.12-4.96,4.71-4.96.17,0,.31-.15.31-.33h0c0-2.73,2.12-4.96,4.71-4.96h8.93c2.59,0,4.71,2.23,4.71,4.96h0c0,.18.14.33.31.33h0c2.59,0,4.71,2.23,4.71,4.96v9.39c0,2.73-2.12,4.96-4.71,4.96h0c-.17,0-.31.15-.31.33h0c0,2.73-2.12,4.96-4.71,4.96Z"/>
            <path class="cls-5" d="M196.92,40.65c0-.8.65-1.48,1.41-1.48,1.99,0,3.61-1.71,3.61-3.8,0-.81.65-1.49,1.41-1.49h8.93c.77,0,1.41.68,1.41,1.48,0,2.1,1.62,3.8,3.61,3.8.77,0,1.41.68,1.41,1.48v9.39c0,.8-.65,1.48-1.41,1.48-2,0-3.62,1.7-3.62,3.8,0,.81-.65,1.49-1.41,1.49h-8.93c-.76,0-1.41-.68-1.41-1.48,0-2.1-1.62-3.8-3.61-3.8-.76,0-1.41-.68-1.41-1.48v-9.39Z"/>
            <path class="cls-5" d="M200.23,42.37c2.3-.69,4.11-2.6,4.76-5.01h5.67c.65,2.42,2.47,4.33,4.76,5.01v5.96c-2.3.69-4.11,2.6-4.77,5.01h-5.67c-.65-2.42-2.47-4.32-4.76-5.01v-5.96Z"/>
            <path class="cls-5" d="M240.69,60.29h-8.93c-2.59,0-4.71-2.23-4.71-4.96h0c0-.18-.14-.33-.31-.33-2.59,0-4.71-2.23-4.71-4.96v-9.39c0-2.73,2.12-4.96,4.71-4.96.17,0,.31-.15.31-.33h0c0-2.73,2.12-4.96,4.71-4.96h8.93c2.59,0,4.71,2.23,4.71,4.96h0c0,.18.14.33.31.33h0c2.59,0,4.71,2.23,4.71,4.96v9.39c0,2.73-2.12,4.96-4.71,4.96h0c-.17,0-.31.15-.31.33h0c0,2.73-2.12,4.96-4.71,4.96Z"/>
            <path class="cls-5" d="M225.33,40.65c0-.8.65-1.48,1.41-1.48,1.99,0,3.61-1.71,3.61-3.8,0-.81.65-1.49,1.41-1.49h8.93c.76,0,1.41.68,1.41,1.48,0,2.1,1.62,3.8,3.61,3.8.77,0,1.41.68,1.41,1.48v9.39c0,.8-.65,1.48-1.41,1.48-2,0-3.62,1.7-3.62,3.8,0,.81-.65,1.49-1.41,1.49h-8.93c-.76,0-1.41-.68-1.41-1.48,0-2.1-1.62-3.8-3.61-3.8-.76,0-1.41-.68-1.41-1.48v-9.39Z"/>
            <path class="cls-5" d="M228.63,42.37c2.3-.69,4.11-2.6,4.76-5.01h5.67c.65,2.42,2.47,4.33,4.76,5.01v5.96c-2.3.69-4.11,2.6-4.77,5.01h-5.67c-.65-2.42-2.47-4.32-4.76-5.01v-5.96Z"/>
            <path class="cls-5" d="M212.29,90.17h-8.93c-2.59,0-4.71-2.23-4.71-4.96h0c0-.18-.14-.33-.31-.33-2.59,0-4.71-2.23-4.71-4.96v-9.39c0-2.73,2.12-4.96,4.71-4.96.17,0,.31-.15.31-.33h0c0-2.73,2.12-4.96,4.71-4.96h8.93c2.59,0,4.71,2.23,4.71,4.96h0c0,.18.14.33.31.33h0c2.59,0,4.71,2.23,4.71,4.96v9.39c0,2.73-2.12,4.96-4.71,4.96h0c-.17,0-.31.15-.31.33h0c0,2.73-2.12,4.96-4.71,4.96Z"/>
            <path class="cls-5" d="M196.92,70.54c0-.8.65-1.48,1.41-1.48,1.99,0,3.61-1.71,3.61-3.8,0-.81.65-1.49,1.41-1.49h8.93c.77,0,1.41.68,1.41,1.48,0,2.1,1.62,3.8,3.61,3.8.77,0,1.41.68,1.41,1.48v9.39c0,.8-.65,1.48-1.41,1.48-2,0-3.62,1.7-3.62,3.8,0,.81-.65,1.49-1.41,1.49h-8.93c-.76,0-1.41-.68-1.41-1.48,0-2.1-1.62-3.8-3.61-3.8-.76,0-1.41-.68-1.41-1.48v-9.39Z"/>
            <path class="cls-5" d="M200.23,72.25c2.3-.69,4.11-2.6,4.76-5.01h5.67c.65,2.42,2.47,4.33,4.76,5.01v5.96c-2.3.69-4.11,2.6-4.77,5.01h-5.67c-.65-2.42-2.47-4.32-4.76-5.01v-5.96Z"/>
            <path class="cls-5" d="M240.69,90.17h-8.93c-2.59,0-4.71-2.23-4.71-4.96h0c0-.18-.14-.33-.31-.33-2.59,0-4.71-2.23-4.71-4.96v-9.39c0-2.73,2.12-4.96,4.71-4.96.17,0,.31-.15.31-.33h0c0-2.73,2.12-4.96,4.71-4.96h8.93c2.59,0,4.71,2.23,4.71,4.96h0c0,.18.14.33.31.33h0c2.59,0,4.71,2.23,4.71,4.96v9.39c0,2.73-2.12,4.96-4.71,4.96h0c-.17,0-.31.15-.31.33h0c0,2.73-2.12,4.96-4.71,4.96Z"/>
            <path class="cls-5" d="M225.33,70.54c0-.8.65-1.48,1.41-1.48,1.99,0,3.61-1.71,3.61-3.8,0-.81.65-1.49,1.41-1.49h8.93c.76,0,1.41.68,1.41,1.48,0,2.1,1.62,3.8,3.61,3.8.77,0,1.41.68,1.41,1.48v9.39c0,.8-.65,1.48-1.41,1.48-2,0-3.62,1.7-3.62,3.8,0,.81-.65,1.49-1.41,1.49h-8.93c-.76,0-1.41-.68-1.41-1.48,0-2.1-1.62-3.8-3.61-3.8-.76,0-1.41-.68-1.41-1.48v-9.39Z"/>
            <path class="cls-5" d="M228.63,72.25c2.3-.69,4.11-2.6,4.76-5.01h5.67c.65,2.42,2.47,4.33,4.76,5.01v5.96c-2.3.69-4.11,2.6-4.77,5.01h-5.67c-.65-2.42-2.47-4.32-4.76-5.01v-5.96Z"/>
          </g>
        </g>
        <g>
          <path class="cls-5" d="M357.63,60.29h-8.93c-2.59,0-4.71-2.23-4.71-4.96h0c0-.18-.14-.33-.31-.33-2.59,0-4.71-2.23-4.71-4.96v-9.39c0-2.73,2.12-4.96,4.71-4.96.17,0,.31-.15.31-.33h0c0-2.73,2.12-4.96,4.71-4.96h8.93c2.59,0,4.71,2.23,4.71,4.96h0c0,.18.14.33.31.33h0c2.59,0,4.71,2.23,4.71,4.96v9.39c0,2.73-2.12,4.96-4.71,4.96h0c-.17,0-.31.15-.31.33h0c0,2.73-2.12,4.96-4.71,4.96Z"/>
          <path class="cls-5" d="M342.27,40.65c0-.8.65-1.48,1.41-1.48,1.99,0,3.61-1.71,3.61-3.8,0-.81.65-1.49,1.41-1.49h8.93c.76,0,1.41.68,1.41,1.48,0,2.1,1.62,3.8,3.61,3.8.77,0,1.41.68,1.41,1.48v9.39c0,.8-.65,1.48-1.41,1.48-2,0-3.62,1.7-3.62,3.8,0,.81-.65,1.49-1.41,1.49h-8.93c-.76,0-1.41-.68-1.41-1.48,0-2.1-1.62-3.8-3.61-3.8-.76,0-1.41-.68-1.41-1.48v-9.39Z"/>
          <path class="cls-5" d="M345.57,42.37c2.3-.69,4.11-2.6,4.76-5.01h5.67c.65,2.42,2.47,4.33,4.76,5.01v5.96c-2.3.69-4.11,2.6-4.77,5.01h-5.67c-.65-2.42-2.47-4.32-4.76-5.01v-5.96Z"/>
          <path class="cls-5" d="M357.63,90.17h-8.93c-2.59,0-4.71-2.23-4.71-4.96h0c0-.18-.14-.33-.31-.33-2.59,0-4.71-2.23-4.71-4.96v-9.39c0-2.73,2.12-4.96,4.71-4.96.17,0,.31-.15.31-.33h0c0-2.73,2.12-4.96,4.71-4.96h8.93c2.59,0,4.71,2.23,4.71,4.96h0c0,.18.14.33.31.33h0c2.59,0,4.71,2.23,4.71,4.96v9.39c0,2.73-2.12,4.96-4.71,4.96h0c-.17,0-.31.15-.31.33h0c0,2.73-2.12,4.96-4.71,4.96Z"/>
          <path class="cls-5" d="M342.27,70.54c0-.8.65-1.48,1.41-1.48,1.99,0,3.61-1.71,3.61-3.8,0-.81.65-1.49,1.41-1.49h8.93c.76,0,1.41.68,1.41,1.48,0,2.1,1.62,3.8,3.61,3.8.77,0,1.41.68,1.41,1.48v9.39c0,.8-.65,1.48-1.41,1.48-2,0-3.62,1.7-3.62,3.8,0,.81-.65,1.49-1.41,1.49h-8.93c-.76,0-1.41-.68-1.41-1.48,0-2.1-1.62-3.8-3.61-3.8-.76,0-1.41-.68-1.41-1.48v-9.39Z"/>
          <path class="cls-5" d="M345.57,72.25c2.3-.69,4.11-2.6,4.76-5.01h5.67c.65,2.42,2.47,4.33,4.76,5.01v5.96c-2.3.69-4.11,2.6-4.77,5.01h-5.67c-.65-2.42-2.47-4.32-4.76-5.01v-5.96Z"/>
          <g>
            <rect class="cls-2" x="281.12" y="30.05" width="57.5" height="60.49"/>
            <path class="cls-5" d="M300.13,60.29h-8.93c-2.59,0-4.71-2.23-4.71-4.96h0c0-.18-.14-.33-.31-.33-2.59,0-4.71-2.23-4.71-4.96v-9.39c0-2.73,2.12-4.96,4.71-4.96.17,0,.31-.15.31-.33h0c0-2.73,2.12-4.96,4.71-4.96h8.93c2.59,0,4.71,2.23,4.71,4.96h0c0,.18.14.33.31.33h0c2.59,0,4.71,2.23,4.71,4.96v9.39c0,2.73-2.12,4.96-4.71,4.96h0c-.17,0-.31.15-.31.33h0c0,2.73-2.12,4.96-4.71,4.96Z"/>
            <path class="cls-5" d="M284.77,40.65c0-.8.65-1.48,1.41-1.48,1.99,0,3.61-1.71,3.61-3.8,0-.81.65-1.49,1.41-1.49h8.93c.76,0,1.41.68,1.41,1.48,0,2.1,1.62,3.8,3.61,3.8.77,0,1.41.68,1.41,1.48v9.39c0,.8-.65,1.48-1.41,1.48-2,0-3.62,1.7-3.62,3.8,0,.81-.65,1.49-1.41,1.49h-8.93c-.76,0-1.41-.68-1.41-1.48,0-2.1-1.62-3.8-3.61-3.8-.76,0-1.41-.68-1.41-1.48v-9.39Z"/>
            <path class="cls-5" d="M288.07,42.37c2.3-.69,4.11-2.6,4.76-5.01h5.67c.65,2.42,2.47,4.33,4.76,5.01v5.96c-2.3.69-4.11,2.6-4.77,5.01h-5.67c-.65-2.42-2.47-4.32-4.76-5.01v-5.96Z"/>
            <path class="cls-5" d="M328.54,60.29h-8.93c-2.59,0-4.71-2.23-4.71-4.96h0c0-.18-.14-.33-.31-.33-2.59,0-4.71-2.23-4.71-4.96v-9.39c0-2.73,2.12-4.96,4.71-4.96.17,0,.31-.15.31-.33h0c0-2.73,2.12-4.96,4.71-4.96h8.93c2.59,0,4.71,2.23,4.71,4.96h0c0,.18.14.33.31.33h0c2.59,0,4.71,2.23,4.71,4.96v9.39c0,2.73-2.12,4.96-4.71,4.96h0c-.17,0-.31.15-.31.33h0c0,2.73-2.12,4.96-4.71,4.96Z"/>
            <path class="cls-5" d="M313.18,40.65c0-.8.65-1.48,1.41-1.48,1.99,0,3.61-1.71,3.61-3.8,0-.81.65-1.49,1.41-1.49h8.93c.77,0,1.41.68,1.41,1.48,0,2.1,1.62,3.8,3.61,3.8.77,0,1.41.68,1.41,1.48v9.39c0,.8-.65,1.48-1.41,1.48-2,0-3.62,1.7-3.62,3.8,0,.81-.65,1.49-1.41,1.49h-8.93c-.77,0-1.41-.68-1.41-1.48,0-2.1-1.62-3.8-3.61-3.8-.76,0-1.41-.68-1.41-1.48v-9.39Z"/>
            <path class="cls-5" d="M316.48,42.37c2.3-.69,4.11-2.6,4.76-5.01h5.67c.65,2.42,2.47,4.33,4.76,5.01v5.96c-2.3.69-4.11,2.6-4.77,5.01h-5.67c-.65-2.42-2.47-4.32-4.76-5.01v-5.96Z"/>
            <path class="cls-5" d="M300.13,90.17h-8.93c-2.59,0-4.71-2.23-4.71-4.96h0c0-.18-.14-.33-.31-.33-2.59,0-4.71-2.23-4.71-4.96v-9.39c0-2.73,2.12-4.96,4.71-4.96.17,0,.31-.15.31-.33h0c0-2.73,2.12-4.96,4.71-4.96h8.93c2.59,0,4.71,2.23,4.71,4.96h0c0,.18.14.33.31.33h0c2.59,0,4.71,2.23,4.71,4.96v9.39c0,2.73-2.12,4.96-4.71,4.96h0c-.17,0-.31.15-.31.33h0c0,2.73-2.12,4.96-4.71,4.96Z"/>
            <path class="cls-5" d="M284.77,70.54c0-.8.65-1.48,1.41-1.48,1.99,0,3.61-1.71,3.61-3.8,0-.81.65-1.49,1.41-1.49h8.93c.76,0,1.41.68,1.41,1.48,0,2.1,1.62,3.8,3.61,3.8.77,0,1.41.68,1.41,1.48v9.39c0,.8-.65,1.48-1.41,1.48-2,0-3.62,1.7-3.62,3.8,0,.81-.65,1.49-1.41,1.49h-8.93c-.76,0-1.41-.68-1.41-1.48,0-2.1-1.62-3.8-3.61-3.8-.76,0-1.41-.68-1.41-1.48v-9.39Z"/>
            <path class="cls-5" d="M288.07,72.25c2.3-.69,4.11-2.6,4.76-5.01h5.67c.65,2.42,2.47,4.33,4.76,5.01v5.96c-2.3.69-4.11,2.6-4.77,5.01h-5.67c-.65-2.42-2.47-4.32-4.76-5.01v-5.96Z"/>
            <path class="cls-5" d="M328.54,90.17h-8.93c-2.59,0-4.71-2.23-4.71-4.96h0c0-.18-.14-.33-.31-.33-2.59,0-4.71-2.23-4.71-4.96v-9.39c0-2.73,2.12-4.96,4.71-4.96.17,0,.31-.15.31-.33h0c0-2.73,2.12-4.96,4.71-4.96h8.93c2.59,0,4.71,2.23,4.71,4.96h0c0,.18.14.33.31.33h0c2.59,0,4.71,2.23,4.71,4.96v9.39c0,2.73-2.12,4.96-4.71,4.96h0c-.17,0-.31.15-.31.33h0c0,2.73-2.12,4.96-4.71,4.96Z"/>
            <path class="cls-5" d="M313.18,70.54c0-.8.65-1.48,1.41-1.48,1.99,0,3.61-1.71,3.61-3.8,0-.81.65-1.49,1.41-1.49h8.93c.77,0,1.41.68,1.41,1.48,0,2.1,1.62,3.8,3.61,3.8.77,0,1.41.68,1.41,1.48v9.39c0,.8-.65,1.48-1.41,1.48-2,0-3.62,1.7-3.62,3.8,0,.81-.65,1.49-1.41,1.49h-8.93c-.77,0-1.41-.68-1.41-1.48,0-2.1-1.62-3.8-3.61-3.8-.76,0-1.41-.68-1.41-1.48v-9.39Z"/>
            <path class="cls-5" d="M316.48,72.25c2.3-.69,4.11-2.6,4.76-5.01h5.67c.65,2.42,2.47,4.33,4.76,5.01v5.96c-2.3.69-4.11,2.6-4.77,5.01h-5.67c-.65-2.42-2.47-4.32-4.76-5.01v-5.96Z"/>
          </g>
        </g>
        <g>
          <path class="cls-5" d="M445.48,60.29h-8.93c-2.59,0-4.71-2.23-4.71-4.96h0c0-.18-.14-.33-.31-.33-2.59,0-4.71-2.23-4.71-4.96v-9.39c0-2.73,2.12-4.96,4.71-4.96.17,0,.31-.15.31-.33h0c0-2.73,2.12-4.96,4.71-4.96h8.93c2.59,0,4.71,2.23,4.71,4.96h0c0,.18.14.33.31.33h0c2.59,0,4.71,2.23,4.71,4.96v9.39c0,2.73-2.12,4.96-4.71,4.96h0c-.17,0-.31.15-.31.33h0c0,2.73-2.12,4.96-4.71,4.96Z"/>
          <path class="cls-5" d="M430.11,40.65c0-.8.65-1.48,1.41-1.48,1.99,0,3.61-1.71,3.61-3.8,0-.81.65-1.49,1.41-1.49h8.93c.76,0,1.41.68,1.41,1.48,0,2.1,1.62,3.8,3.61,3.8.77,0,1.41.68,1.41,1.48v9.39c0,.8-.65,1.48-1.41,1.48-2,0-3.62,1.7-3.62,3.8,0,.81-.65,1.49-1.41,1.49h-8.93c-.76,0-1.41-.68-1.41-1.48,0-2.1-1.62-3.8-3.61-3.8-.76,0-1.41-.68-1.41-1.48v-9.39Z"/>
          <path class="cls-5" d="M433.42,42.37c2.3-.69,4.11-2.6,4.76-5.01h5.67c.65,2.42,2.47,4.33,4.76,5.01v5.96c-2.3.69-4.11,2.6-4.77,5.01h-5.67c-.65-2.42-2.47-4.32-4.76-5.01v-5.96Z"/>
          <path class="cls-5" d="M445.48,90.17h-8.93c-2.59,0-4.71-2.23-4.71-4.96h0c0-.18-.14-.33-.31-.33-2.59,0-4.71-2.23-4.71-4.96v-9.39c0-2.73,2.12-4.96,4.71-4.96.17,0,.31-.15.31-.33h0c0-2.73,2.12-4.96,4.71-4.96h8.93c2.59,0,4.71,2.23,4.71,4.96h0c0,.18.14.33.31.33h0c2.59,0,4.71,2.23,4.71,4.96v9.39c0,2.73-2.12,4.96-4.71,4.96h0c-.17,0-.31.15-.31.33h0c0,2.73-2.12,4.96-4.71,4.96Z"/>
          <path class="cls-5" d="M430.11,70.54c0-.8.65-1.48,1.41-1.48,1.99,0,3.61-1.71,3.61-3.8,0-.81.65-1.49,1.41-1.49h8.93c.76,0,1.41.68,1.41,1.48,0,2.1,1.62,3.8,3.61,3.8.77,0,1.41.68,1.41,1.48v9.39c0,.8-.65,1.48-1.41,1.48-2,0-3.62,1.7-3.62,3.8,0,.81-.65,1.49-1.41,1.49h-8.93c-.76,0-1.41-.68-1.41-1.48,0-2.1-1.62-3.8-3.61-3.8-.76,0-1.41-.68-1.41-1.48v-9.39Z"/>
          <path class="cls-5" d="M433.42,72.25c2.3-.69,4.11-2.6,4.76-5.01h5.67c.65,2.42,2.47,4.33,4.76,5.01v5.96c-2.3.69-4.11,2.6-4.77,5.01h-5.67c-.65-2.42-2.47-4.32-4.76-5.01v-5.96Z"/>
          <g>
            <rect class="cls-2" x="368.97" y="30.05" width="57.5" height="60.49"/>
            <path class="cls-5" d="M387.98,60.29h-8.93c-2.59,0-4.71-2.23-4.71-4.96h0c0-.18-.14-.33-.31-.33-2.59,0-4.71-2.23-4.71-4.96v-9.39c0-2.73,2.12-4.96,4.71-4.96.17,0,.31-.15.31-.33h0c0-2.73,2.12-4.96,4.71-4.96h8.93c2.59,0,4.71,2.23,4.71,4.96h0c0,.18.14.33.31.33h0c2.59,0,4.71,2.23,4.71,4.96v9.39c0,2.73-2.12,4.96-4.71,4.96h0c-.17,0-.31.15-.31.33h0c0,2.73-2.12,4.96-4.71,4.96Z"/>
            <path class="cls-5" d="M372.61,40.65c0-.8.65-1.48,1.41-1.48,1.99,0,3.61-1.71,3.61-3.8,0-.81.65-1.49,1.41-1.49h8.93c.76,0,1.41.68,1.41,1.48,0,2.1,1.62,3.8,3.61,3.8.77,0,1.41.68,1.41,1.48v9.39c0,.8-.65,1.48-1.41,1.48-2,0-3.62,1.7-3.62,3.8,0,.81-.65,1.49-1.41,1.49h-8.93c-.76,0-1.41-.68-1.41-1.48,0-2.1-1.62-3.8-3.61-3.8-.76,0-1.41-.68-1.41-1.48v-9.39Z"/>
            <path class="cls-5" d="M375.92,42.37c2.3-.69,4.11-2.6,4.76-5.01h5.67c.65,2.42,2.47,4.33,4.76,5.01v5.96c-2.3.69-4.11,2.6-4.77,5.01h-5.67c-.65-2.42-2.47-4.32-4.76-5.01v-5.96Z"/>
            <path class="cls-5" d="M416.39,60.29h-8.93c-2.59,0-4.71-2.23-4.71-4.96h0c0-.18-.14-.33-.31-.33-2.59,0-4.71-2.23-4.71-4.96v-9.39c0-2.73,2.12-4.96,4.71-4.96.17,0,.31-.15.31-.33h0c0-2.73,2.12-4.96,4.71-4.96h8.93c2.59,0,4.71,2.23,4.71,4.96h0c0,.18.14.33.31.33h0c2.59,0,4.71,2.23,4.71,4.96v9.39c0,2.73-2.12,4.96-4.71,4.96h0c-.17,0-.31.15-.31.33h0c0,2.73-2.12,4.96-4.71,4.96Z"/>
            <path class="cls-5" d="M401.02,40.65c0-.8.65-1.48,1.41-1.48,1.99,0,3.61-1.71,3.61-3.8,0-.81.65-1.49,1.41-1.49h8.93c.76,0,1.41.68,1.41,1.48,0,2.1,1.62,3.8,3.61,3.8.77,0,1.41.68,1.41,1.48v9.39c0,.8-.65,1.48-1.41,1.48-2,0-3.62,1.7-3.62,3.8,0,.81-.65,1.49-1.41,1.49h-8.93c-.76,0-1.41-.68-1.41-1.48,0-2.1-1.62-3.8-3.61-3.8-.76,0-1.41-.68-1.41-1.48v-9.39Z"/>
            <path class="cls-5" d="M404.32,42.37c2.3-.69,4.11-2.6,4.76-5.01h5.67c.65,2.42,2.47,4.33,4.76,5.01v5.96c-2.3.69-4.11,2.6-4.77,5.01h-5.67c-.65-2.42-2.47-4.32-4.76-5.01v-5.96Z"/>
            <path class="cls-5" d="M387.98,90.17h-8.93c-2.59,0-4.71-2.23-4.71-4.96h0c0-.18-.14-.33-.31-.33-2.59,0-4.71-2.23-4.71-4.96v-9.39c0-2.73,2.12-4.96,4.71-4.96.17,0,.31-.15.31-.33h0c0-2.73,2.12-4.96,4.71-4.96h8.93c2.59,0,4.71,2.23,4.71,4.96h0c0,.18.14.33.31.33h0c2.59,0,4.71,2.23,4.71,4.96v9.39c0,2.73-2.12,4.96-4.71,4.96h0c-.17,0-.31.15-.31.33h0c0,2.73-2.12,4.96-4.71,4.96Z"/>
            <path class="cls-5" d="M372.61,70.54c0-.8.65-1.48,1.41-1.48,1.99,0,3.61-1.71,3.61-3.8,0-.81.65-1.49,1.41-1.49h8.93c.76,0,1.41.68,1.41,1.48,0,2.1,1.62,3.8,3.61,3.8.77,0,1.41.68,1.41,1.48v9.39c0,.8-.65,1.48-1.41,1.48-2,0-3.62,1.7-3.62,3.8,0,.81-.65,1.49-1.41,1.49h-8.93c-.76,0-1.41-.68-1.41-1.48,0-2.1-1.62-3.8-3.61-3.8-.76,0-1.41-.68-1.41-1.48v-9.39Z"/>
            <path class="cls-5" d="M375.92,72.25c2.3-.69,4.11-2.6,4.76-5.01h5.67c.65,2.42,2.47,4.33,4.76,5.01v5.96c-2.3.69-4.11,2.6-4.77,5.01h-5.67c-.65-2.42-2.47-4.32-4.76-5.01v-5.96Z"/>
            <path class="cls-5" d="M416.39,90.17h-8.93c-2.59,0-4.71-2.23-4.71-4.96h0c0-.18-.14-.33-.31-.33-2.59,0-4.71-2.23-4.71-4.96v-9.39c0-2.73,2.12-4.96,4.71-4.96.17,0,.31-.15.31-.33h0c0-2.73,2.12-4.96,4.71-4.96h8.93c2.59,0,4.71,2.23,4.71,4.96h0c0,.18.14.33.31.33h0c2.59,0,4.71,2.23,4.71,4.96v9.39c0,2.73-2.12,4.96-4.71,4.96h0c-.17,0-.31.15-.31.33h0c0,2.73-2.12,4.96-4.71,4.96Z"/>
            <path class="cls-5" d="M401.02,70.54c0-.8.65-1.48,1.41-1.48,1.99,0,3.61-1.71,3.61-3.8,0-.81.65-1.49,1.41-1.49h8.93c.76,0,1.41.68,1.41,1.48,0,2.1,1.62,3.8,3.61,3.8.77,0,1.41.68,1.41,1.48v9.39c0,.8-.65,1.48-1.41,1.48-2,0-3.62,1.7-3.62,3.8,0,.81-.65,1.49-1.41,1.49h-8.93c-.76,0-1.41-.68-1.41-1.48,0-2.1-1.62-3.8-3.61-3.8-.76,0-1.41-.68-1.41-1.48v-9.39Z"/>
            <path class="cls-5" d="M404.32,72.25c2.3-.69,4.11-2.6,4.76-5.01h5.67c.65,2.42,2.47,4.33,4.76,5.01v5.96c-2.3.69-4.11,2.6-4.77,5.01h-5.67c-.65-2.42-2.47-4.32-4.76-5.01v-5.96Z"/>
          </g>
        </g>
        <g class="cls-1">
          <path class="cls-5" d="M58.6,25.35v9.39c0,2.73-2.23,4.96-4.96,4.96h0c-.18,0-.33.15-.33.33,0,2.73-2.23,4.96-4.96,4.96h-9.39c-2.73,0-4.96-2.23-4.96-4.96,0-.18-.15-.33-.33-.33h0c-2.73,0-4.96-2.23-4.96-4.96v-9.39c0-2.73,2.23-4.96,4.96-4.96h0c.18,0,.33-.15.33-.33h0c0-2.73,2.23-4.96,4.96-4.96h9.39c2.73,0,4.96,2.23,4.96,4.96h0c0,.18.15.33.33.33h0c2.73,0,4.96,2.23,4.96,4.96Z"/>
          <path class="cls-5" d="M38.96,41.51c-.8,0-1.48-.68-1.48-1.48,0-2.1-1.71-3.8-3.8-3.8-.81,0-1.49-.68-1.49-1.48v-9.39c0-.8.68-1.48,1.48-1.48,2.1,0,3.8-1.7,3.8-3.8,0-.81.68-1.49,1.48-1.49h9.39c.8,0,1.48.68,1.48,1.48,0,2.1,1.7,3.8,3.8,3.8.81,0,1.49.68,1.49,1.48v9.39c0,.8-.68,1.48-1.48,1.48-2.1,0-3.8,1.7-3.8,3.8,0,.8-.68,1.48-1.48,1.48h-9.39Z"/>
          <path class="cls-5" d="M40.68,38.04c-.69-2.42-2.6-4.32-5.01-5.01v-5.96c2.42-.69,4.33-2.6,5.01-5.01h5.96c.69,2.42,2.6,4.33,5.01,5.01v5.96c-2.42.69-4.32,2.59-5.01,5.01h-5.96Z"/>
          <path class="cls-5" d="M88.48,25.35v9.39c0,2.73-2.23,4.96-4.96,4.96h0c-.18,0-.33.15-.33.33,0,2.73-2.23,4.96-4.96,4.96h-9.39c-2.73,0-4.96-2.23-4.96-4.96,0-.18-.15-.33-.33-.33h0c-2.73,0-4.96-2.23-4.96-4.96v-9.39c0-2.73,2.23-4.96,4.96-4.96h0c.18,0,.33-.15.33-.33h0c0-2.73,2.23-4.96,4.96-4.96h9.39c2.73,0,4.96,2.23,4.96,4.96h0c0,.18.15.33.33.33h0c2.73,0,4.96,2.23,4.96,4.96Z"/>
          <path class="cls-5" d="M68.85,41.51c-.8,0-1.48-.68-1.48-1.48,0-2.1-1.71-3.8-3.8-3.8-.81,0-1.49-.68-1.49-1.48v-9.39c0-.8.68-1.48,1.48-1.48,2.1,0,3.8-1.7,3.8-3.8,0-.81.68-1.49,1.48-1.49h9.39c.8,0,1.48.68,1.48,1.48,0,2.1,1.7,3.8,3.8,3.8.81,0,1.49.68,1.49,1.48v9.39c0,.8-.68,1.48-1.48,1.48-2.1,0-3.8,1.7-3.8,3.8,0,.8-.68,1.48-1.48,1.48h-9.39Z"/>
          <path class="cls-5" d="M70.56,38.04c-.69-2.42-2.6-4.32-5.01-5.01v-5.96c2.42-.69,4.33-2.6,5.01-5.01h5.96c.69,2.42,2.6,4.33,5.01,5.01v5.96c-2.42.69-4.32,2.59-5.01,5.01h-5.96Z"/>
          <g>
            <rect class="cls-2" x="28.36" y="45.35" width="60.49" height="60.48"/>
            <path class="cls-5" d="M58.6,85.84v9.39c0,2.73-2.23,4.96-4.96,4.96h0c-.18,0-.33.15-.33.33,0,2.73-2.23,4.96-4.96,4.96h-9.39c-2.73,0-4.96-2.23-4.96-4.96,0-.18-.15-.33-.33-.33h0c-2.73,0-4.96-2.23-4.96-4.96v-9.39c0-2.73,2.23-4.96,4.96-4.96h0c.18,0,.33-.15.33-.33h0c0-2.73,2.23-4.96,4.96-4.96h9.39c2.73,0,4.96,2.23,4.96,4.96h0c0,.18.15.33.33.33h0c2.73,0,4.96,2.23,4.96,4.96Z"/>
            <path class="cls-5" d="M38.96,102c-.8,0-1.48-.68-1.48-1.48,0-2.1-1.71-3.8-3.8-3.8-.81,0-1.49-.68-1.49-1.48v-9.39c0-.8.68-1.48,1.48-1.48,2.1,0,3.8-1.7,3.8-3.8,0-.81.68-1.49,1.48-1.49h9.39c.8,0,1.48.68,1.48,1.48,0,2.1,1.7,3.8,3.8,3.8.81,0,1.49.68,1.49,1.48v9.39c0,.8-.68,1.48-1.48,1.48-2.1,0-3.8,1.7-3.8,3.8,0,.8-.68,1.48-1.48,1.48h-9.39Z"/>
            <path class="cls-5" d="M40.68,98.52c-.69-2.42-2.6-4.32-5.01-5.01v-5.96c2.42-.69,4.33-2.6,5.01-5.01h5.96c.69,2.42,2.6,4.33,5.01,5.01v5.96c-2.42.69-4.32,2.59-5.01,5.01h-5.96Z"/>
            <path class="cls-5" d="M58.6,55.95v9.39c0,2.73-2.23,4.96-4.96,4.96h0c-.18,0-.33.15-.33.33,0,2.73-2.23,4.96-4.96,4.96h-9.39c-2.73,0-4.96-2.23-4.96-4.96,0-.18-.15-.33-.33-.33h0c-2.73,0-4.96-2.23-4.96-4.96v-9.39c0-2.73,2.23-4.96,4.96-4.96h0c.18,0,.33-.15.33-.33h0c0-2.73,2.23-4.96,4.96-4.96h9.39c2.73,0,4.96,2.23,4.96,4.96h0c0,.18.15.33.33.33h0c2.73,0,4.96,2.23,4.96,4.96Z"/>
            <path class="cls-5" d="M38.96,72.11c-.8,0-1.48-.68-1.48-1.48,0-2.1-1.71-3.8-3.8-3.8-.81,0-1.49-.68-1.49-1.48v-9.39c0-.8.68-1.48,1.48-1.48,2.1,0,3.8-1.7,3.8-3.8,0-.81.68-1.49,1.48-1.49h9.39c.8,0,1.48.68,1.48,1.48,0,2.1,1.7,3.8,3.8,3.8.81,0,1.49.68,1.49,1.48v9.39c0,.8-.68,1.48-1.48,1.48-2.1,0-3.8,1.7-3.8,3.8,0,.8-.68,1.48-1.48,1.48h-9.39Z"/>
            <path class="cls-5" d="M40.68,68.64c-.69-2.42-2.6-4.32-5.01-5.01v-5.96c2.42-.69,4.33-2.6,5.01-5.01h5.96c.69,2.42,2.6,4.33,5.01,5.01v5.96c-2.42.69-4.32,2.59-5.01,5.01h-5.96Z"/>
            <path class="cls-5" d="M88.48,85.84v9.39c0,2.73-2.23,4.96-4.96,4.96h0c-.18,0-.33.15-.33.33,0,2.73-2.23,4.96-4.96,4.96h-9.39c-2.73,0-4.96-2.23-4.96-4.96,0-.18-.15-.33-.33-.33h0c-2.73,0-4.96-2.23-4.96-4.96v-9.39c0-2.73,2.23-4.96,4.96-4.96h0c.18,0,.33-.15.33-.33h0c0-2.73,2.23-4.96,4.96-4.96h9.39c2.73,0,4.96,2.23,4.96,4.96h0c0,.18.15.33.33.33h0c2.73,0,4.96,2.23,4.96,4.96Z"/>
            <path class="cls-5" d="M68.85,102c-.8,0-1.48-.68-1.48-1.48,0-2.1-1.71-3.8-3.8-3.8-.81,0-1.49-.68-1.49-1.48v-9.39c0-.8.68-1.48,1.48-1.48,2.1,0,3.8-1.7,3.8-3.8,0-.81.68-1.49,1.48-1.49h9.39c.8,0,1.48.68,1.48,1.48,0,2.1,1.7,3.8,3.8,3.8.81,0,1.49.68,1.49,1.48v9.39c0,.8-.68,1.48-1.48,1.48-2.1,0-3.8,1.7-3.8,3.8,0,.8-.68,1.48-1.48,1.48h-9.39Z"/>
            <path class="cls-5" d="M70.56,98.52c-.69-2.42-2.6-4.32-5.01-5.01v-5.96c2.42-.69,4.33-2.6,5.01-5.01h5.96c.69,2.42,2.6,4.33,5.01,5.01v5.96c-2.42.69-4.32,2.59-5.01,5.01h-5.96Z"/>
            <path class="cls-5" d="M88.48,55.95v9.39c0,2.73-2.23,4.96-4.96,4.96h0c-.18,0-.33.15-.33.33,0,2.73-2.23,4.96-4.96,4.96h-9.39c-2.73,0-4.96-2.23-4.96-4.96,0-.18-.15-.33-.33-.33h0c-2.73,0-4.96-2.23-4.96-4.96v-9.39c0-2.73,2.23-4.96,4.96-4.96h0c.18,0,.33-.15.33-.33h0c0-2.73,2.23-4.96,4.96-4.96h9.39c2.73,0,4.96,2.23,4.96,4.96h0c0,.18.15.33.33.33h0c2.73,0,4.96,2.23,4.96,4.96Z"/>
            <path class="cls-5" d="M68.85,72.11c-.8,0-1.48-.68-1.48-1.48,0-2.1-1.71-3.8-3.8-3.8-.81,0-1.49-.68-1.49-1.48v-9.39c0-.8.68-1.48,1.48-1.48,2.1,0,3.8-1.7,3.8-3.8,0-.81.68-1.49,1.48-1.49h9.39c.8,0,1.48.68,1.48,1.48,0,2.1,1.7,3.8,3.8,3.8.81,0,1.49.68,1.49,1.48v9.39c0,.8-.68,1.48-1.48,1.48-2.1,0-3.8,1.7-3.8,3.8,0,.8-.68,1.48-1.48,1.48h-9.39Z"/>
            <path class="cls-5" d="M70.56,68.64c-.69-2.42-2.6-4.32-5.01-5.01v-5.96c2.42-.69,4.33-2.6,5.01-5.01h5.96c.69,2.42,2.6,4.33,5.01,5.01v5.96c-2.42.69-4.32,2.59-5.01,5.01h-5.96Z"/>
          </g>
        </g>
        <g class="cls-6">
          <path class="cls-5" d="M93.54,60.29h-9.39c-2.73,0-4.96-2.23-4.96-4.96h0c0-.18-.15-.33-.33-.33-2.73,0-4.96-2.23-4.96-4.96v-9.39c0-2.73,2.23-4.96,4.96-4.96.18,0,.33-.15.33-.33h0c0-2.73,2.23-4.96,4.96-4.96h9.39c2.73,0,4.96,2.23,4.96,4.96h0c0,.18.15.33.33.33h0c2.73,0,4.96,2.23,4.96,4.96v9.39c0,2.73-2.23,4.96-4.96,4.96h0c-.18,0-.33.15-.33.33h0c0,2.73-2.23,4.96-4.96,4.96Z"/>
          <path class="cls-5" d="M77.38,40.65c0-.8.68-1.48,1.48-1.48,2.1,0,3.8-1.71,3.8-3.8,0-.81.68-1.49,1.48-1.49h9.39c.8,0,1.48.68,1.48,1.48,0,2.1,1.71,3.8,3.8,3.8.81,0,1.49.68,1.49,1.48v9.39c0,.8-.68,1.48-1.48,1.48-2.1,0-3.8,1.7-3.8,3.8,0,.81-.68,1.49-1.48,1.49h-9.39c-.8,0-1.48-.68-1.48-1.48,0-2.1-1.7-3.8-3.8-3.8-.8,0-1.48-.68-1.48-1.48v-9.39Z"/>
          <path class="cls-5" d="M80.85,42.37c2.42-.69,4.32-2.6,5.01-5.01h5.96c.69,2.42,2.6,4.33,5.01,5.01v5.96c-2.42.69-4.33,2.6-5.01,5.01h-5.96c-.69-2.42-2.59-4.32-5.01-5.01v-5.96Z"/>
          <path class="cls-5" d="M93.54,90.17h-9.39c-2.73,0-4.96-2.23-4.96-4.96h0c0-.18-.15-.33-.33-.33-2.73,0-4.96-2.23-4.96-4.96v-9.39c0-2.73,2.23-4.96,4.96-4.96.18,0,.33-.15.33-.33h0c0-2.73,2.23-4.96,4.96-4.96h9.39c2.73,0,4.96,2.23,4.96,4.96h0c0,.18.15.33.33.33h0c2.73,0,4.96,2.23,4.96,4.96v9.39c0,2.73-2.23,4.96-4.96,4.96h0c-.18,0-.33.15-.33.33h0c0,2.73-2.23,4.96-4.96,4.96Z"/>
          <path class="cls-5" d="M77.38,70.54c0-.8.68-1.48,1.48-1.48,2.1,0,3.8-1.71,3.8-3.8,0-.81.68-1.49,1.48-1.49h9.39c.8,0,1.48.68,1.48,1.48,0,2.1,1.71,3.8,3.8,3.8.81,0,1.49.68,1.49,1.48v9.39c0,.8-.68,1.48-1.48,1.48-2.1,0-3.8,1.7-3.8,3.8,0,.81-.68,1.49-1.48,1.49h-9.39c-.8,0-1.48-.68-1.48-1.48,0-2.1-1.7-3.8-3.8-3.8-.8,0-1.48-.68-1.48-1.48v-9.39Z"/>
          <path class="cls-5" d="M80.85,72.25c2.42-.69,4.32-2.6,5.01-5.01h5.96c.69,2.42,2.6,4.33,5.01,5.01v5.96c-2.42.69-4.33,2.6-5.01,5.01h-5.96c-.69-2.42-2.59-4.32-5.01-5.01v-5.96Z"/>
          <g>
            <rect class="cls-2" x="13.06" y="30.05" width="60.48" height="60.49"/>
            <path class="cls-5" d="M33.05,60.29h-9.39c-2.73,0-4.96-2.23-4.96-4.96h0c0-.18-.15-.33-.33-.33-2.73,0-4.96-2.23-4.96-4.96v-9.39c0-2.73,2.23-4.96,4.96-4.96.18,0,.33-.15.33-.33h0c0-2.73,2.23-4.96,4.96-4.96h9.39c2.73,0,4.96,2.23,4.96,4.96h0c0,.18.15.33.33.33h0c2.73,0,4.96,2.23,4.96,4.96v9.39c0,2.73-2.23,4.96-4.96,4.96h0c-.18,0-.33.15-.33.33h0c0,2.73-2.23,4.96-4.96,4.96Z"/>
            <path class="cls-5" d="M16.89,40.65c0-.8.68-1.48,1.48-1.48,2.1,0,3.8-1.71,3.8-3.8,0-.81.68-1.49,1.48-1.49h9.39c.8,0,1.48.68,1.48,1.48,0,2.1,1.7,3.8,3.8,3.8.81,0,1.49.68,1.49,1.48v9.39c0,.8-.68,1.48-1.48,1.48-2.1,0-3.8,1.7-3.8,3.8,0,.81-.68,1.49-1.48,1.49h-9.39c-.8,0-1.48-.68-1.48-1.48,0-2.1-1.71-3.8-3.8-3.8-.8,0-1.48-.68-1.48-1.48v-9.39Z"/>
            <path class="cls-5" d="M20.37,42.37c2.42-.69,4.32-2.6,5.01-5.01h5.96c.69,2.42,2.6,4.33,5.01,5.01v5.96c-2.42.69-4.33,2.6-5.01,5.01h-5.96c-.69-2.42-2.59-4.32-5.01-5.01v-5.96Z"/>
            <path class="cls-5" d="M62.94,60.29h-9.39c-2.73,0-4.96-2.23-4.96-4.96h0c0-.18-.15-.33-.33-.33-2.73,0-4.96-2.23-4.96-4.96v-9.39c0-2.73,2.23-4.96,4.96-4.96.18,0,.33-.15.33-.33h0c0-2.73,2.23-4.96,4.96-4.96h9.39c2.73,0,4.96,2.23,4.96,4.96h0c0,.18.15.33.33.33h0c2.73,0,4.96,2.23,4.96,4.96v9.39c0,2.73-2.23,4.96-4.96,4.96h0c-.18,0-.33.15-.33.33h0c0,2.73-2.23,4.96-4.96,4.96Z"/>
            <path class="cls-5" d="M46.77,40.65c0-.8.68-1.48,1.48-1.48,2.1,0,3.8-1.71,3.8-3.8,0-.81.68-1.49,1.48-1.49h9.39c.8,0,1.48.68,1.48,1.48,0,2.1,1.7,3.8,3.8,3.8.81,0,1.49.68,1.49,1.48v9.39c0,.8-.68,1.48-1.48,1.48-2.1,0-3.8,1.7-3.8,3.8,0,.81-.68,1.49-1.48,1.49h-9.39c-.8,0-1.48-.68-1.48-1.48,0-2.1-1.7-3.8-3.8-3.8-.8,0-1.48-.68-1.48-1.48v-9.39Z"/>
            <path class="cls-5" d="M50.25,42.37c2.42-.69,4.32-2.6,5.01-5.01h5.96c.69,2.42,2.6,4.33,5.01,5.01v5.96c-2.42.69-4.33,2.6-5.01,5.01h-5.96c-.69-2.42-2.59-4.32-5.01-5.01v-5.96Z"/>
            <path class="cls-5" d="M33.05,90.17h-9.39c-2.73,0-4.96-2.23-4.96-4.96h0c0-.18-.15-.33-.33-.33-2.73,0-4.96-2.23-4.96-4.96v-9.39c0-2.73,2.23-4.96,4.96-4.96.18,0,.33-.15.33-.33h0c0-2.73,2.23-4.96,4.96-4.96h9.39c2.73,0,4.96,2.23,4.96,4.96h0c0,.18.15.33.33.33h0c2.73,0,4.96,2.23,4.96,4.96v9.39c0,2.73-2.23,4.96-4.96,4.96h0c-.18,0-.33.15-.33.33h0c0,2.73-2.23,4.96-4.96,4.96Z"/>
            <path class="cls-5" d="M16.89,70.54c0-.8.68-1.48,1.48-1.48,2.1,0,3.8-1.71,3.8-3.8,0-.81.68-1.49,1.48-1.49h9.39c.8,0,1.48.68,1.48,1.48,0,2.1,1.7,3.8,3.8,3.8.81,0,1.49.68,1.49,1.48v9.39c0,.8-.68,1.48-1.48,1.48-2.1,0-3.8,1.7-3.8,3.8,0,.81-.68,1.49-1.48,1.49h-9.39c-.8,0-1.48-.68-1.48-1.48,0-2.1-1.71-3.8-3.8-3.8-.8,0-1.48-.68-1.48-1.48v-9.39Z"/>
            <path class="cls-5" d="M20.37,72.25c2.42-.69,4.32-2.6,5.01-5.01h5.96c.69,2.42,2.6,4.33,5.01,5.01v5.96c-2.42.69-4.33,2.6-5.01,5.01h-5.96c-.69-2.42-2.59-4.32-5.01-5.01v-5.96Z"/>
            <path class="cls-5" d="M62.94,90.17h-9.39c-2.73,0-4.96-2.23-4.96-4.96h0c0-.18-.15-.33-.33-.33-2.73,0-4.96-2.23-4.96-4.96v-9.39c0-2.73,2.23-4.96,4.96-4.96.18,0,.33-.15.33-.33h0c0-2.73,2.23-4.96,4.96-4.96h9.39c2.73,0,4.96,2.23,4.96,4.96h0c0,.18.15.33.33.33h0c2.73,0,4.96,2.23,4.96,4.96v9.39c0,2.73-2.23,4.96-4.96,4.96h0c-.18,0-.33.15-.33.33h0c0,2.73-2.23,4.96-4.96,4.96Z"/>
            <path class="cls-5" d="M46.77,70.54c0-.8.68-1.48,1.48-1.48,2.1,0,3.8-1.71,3.8-3.8,0-.81.68-1.49,1.48-1.49h9.39c.8,0,1.48.68,1.48,1.48,0,2.1,1.7,3.8,3.8,3.8.81,0,1.49.68,1.49,1.48v9.39c0,.8-.68,1.48-1.48,1.48-2.1,0-3.8,1.7-3.8,3.8,0,.81-.68,1.49-1.48,1.49h-9.39c-.8,0-1.48-.68-1.48-1.48,0-2.1-1.7-3.8-3.8-3.8-.8,0-1.48-.68-1.48-1.48v-9.39Z"/>
            <path class="cls-5" d="M50.25,72.25c2.42-.69,4.32-2.6,5.01-5.01h5.96c.69,2.42,2.6,4.33,5.01,5.01v5.96c-2.42.69-4.33,2.6-5.01,5.01h-5.96c-.69-2.42-2.59-4.32-5.01-5.01v-5.96Z"/>
          </g>
        </g>
      </g>
      <polyline class="cls-4" points="8.5 457.87 8.5 8.5 457.19 8.5"/>
      <polyline class="cls-4" points="110.84 457.87 110.84 111 457.19 111"/>
      <g>
        <polyline class="cls-3" points="210.23 153.62 210.23 161.68 192.84 161.68 192.84 141.73 225.84 141.73 457.19 141.73"/>
        <polyline class="cls-3" points="152.75 210.73 160.81 210.73 160.81 193.34 140.85 193.34 140.85 226.34 140.85 457.87"/>
        <polyline class="cls-3" points="225.46 141.73 225.46 176.65 190.93 176.65 176.15 161.87 176.15 141.73 140.65 141.73 140.65 176.65 160.99 176.65 175.77 191.43 175.77 225.96 140.85 225.96"/>
        <polyline class="cls-3" points="162.51 243.82 162.51 247.23 162.51 293.77"/>
        <polyline class="cls-3" points="244.35 164.28 247.76 164.28 299.96 164.28"/>
      </g>
    </g>
  </g>
</svg>